<svg xmlns="http://www.w3.org/2000/svg" viewBox="0 0 99.41 99.91"><defs><style>.cls-1{fill:#4dd5c7;}.cls-2{fill:#fefefe;}.cls-3{fill:#4cd5c7;}.cls-4{fill:#42c9bb;}.cls-5{fill:#42cabc;}.cls-6{fill:#4cd3c5;}.cls-7{fill:#4ed7c9;}.cls-8{fill:#3ac2b5;}.cls-9{fill:#3dc4b7;}.cls-10{fill:#39c0b3;}.cls-11{fill:#3cc4b6;}.cls-12{fill:#3ec6b8;}.cls-13{fill:#39c0b2;}.cls-14{fill:#4cd4c6;}.cls-15{fill:#3ec6b9;}.cls-16{fill:#41c9bb;}.cls-17{fill:#4ad2c4;}.cls-18{fill:#49d1c3;}.cls-19{fill:#3bc3b5;}.cls-20{fill:#3ac2b3;}.cls-21{fill:#4dd6c8;}.cls-22{fill:#4bd3c6;}.cls-23{fill:#38c0b2;}.cls-24{fill:#44cdbf;}.cls-25{fill:#4ad3c5;}.cls-26{fill:#3ac2b4;}.cls-27{fill:#3cc4b7;}.cls-28{fill:#38c1b3;}.cls-29{fill:#3ec5b7;}.cls-30{fill:#38bfb2;}.cls-31{fill:#39c1b3;}</style></defs><title>thumbnail-4</title><g id="Layer_2" data-name="Layer 2"><g id="Layer_1-2" data-name="Layer 1"><path class="cls-1" d="M99.37.6q0,48.58,0,97.16c0,1.78-.36,2.15-2.14,2.15q-48.34-.1-96.67,0a4.49,4.49,0,0,1-.24-2.42q0-47.15,0-94.3C.35.36.36.35,3.14.35H96.95A4.5,4.5,0,0,1,99.37.6Z"/><path class="cls-2" d="M99.37.6q-48,0-96-.05C1.14.54.54,1.14.55,3.39Q.66,51.63.6,99.86c-1,.08-.47-.68-.47-1Q.09,50.17.07,1.46C.07.3.3.07,1.46.07Q49.92.13,98.38.13C98.69.13,99.44-.37,99.37.6Z"/><path class="cls-3" d="M77.64,24.3c3.17,1.19,4.62,3.18,4.53,6.86-.25,10.35-.09,20.72-.09,31.08,0,2.27.25,4.58-1,6.63,1.39.84,4-.26,3.78,2.33-.22,2.3-2.5,2.53-4.31,2.94a11.64,11.64,0,0,1-2.46,0,.55.55,0,0,1-.06-.68,1.62,1.62,0,0,1,1.27-.55c1.09-.31,2.54-.09,2.58-1.86-.76-1-1.83-.59-2.76-.59-7.13,0-14.26,0-21.4,0a58.2,58.2,0,0,0-16.48,0c-7.12,0-14.24,0-21.35,0-.89,0-2-.52-2.58.73.28,2.23,2.69,1.13,3.61,2.32a.58.58,0,0,1-.12.63c-1.54-.07-3.09.2-4.56-.65-1.06-.61-2-1.08-1.78-2.55S15.77,69.2,17,69.23A10.47,10.47,0,0,0,18.47,69c-1.37-2.31-1.08-4.7-1.08-7q0-16.38,0-32.77c0-1.78.17-3.37,2.48-3.45a7,7,0,0,1,.2,3.41c-1,10.83-.21,21.68-.43,32.51a24,24,0,0,0,.69,5.1,2.23,2.23,0,0,0,.95.81,10,10,0,0,0,3.67.38H74c1.39,0,2.81.13,4.08-.64s1.23-2.07,1.23-3.32c0-11.34.05-22.69,0-34,0-1.37.06-2.84-1.16-3.88a2.25,2.25,0,0,1-.73-1A1,1,0,0,1,77.64,24.3Z"/><path class="cls-4" d="M77.64,24.79l.49.5a1.63,1.63,0,0,1-.75.57,15,15,0,0,1-3.43.16H27.19a17,17,0,0,0-4.4.31,6.07,6.07,0,0,0-1.26.55c-1.46.7-1.43,2-1.44,3.36,0,12.29.09,24.58-.05,36.87a1.49,1.49,0,0,1-.69,1.15,4.48,4.48,0,0,1-.48-2.86q0-18,0-35.93a5.37,5.37,0,0,1,1-3.7l1.48-1a5.43,5.43,0,0,1,3.12-.49H74.52A5.43,5.43,0,0,1,77.64,24.79Z"/><path class="cls-5" d="M78.14,73.69q0,.24,0,.48c-1.6-.22-2.88,1-4.44,1a11.46,11.46,0,0,1-3.63.49H28.66a5,5,0,0,1-2.87-.49c-1.75.2-3.18-1.2-4.93-1q0-.24,0-.49c.4-.72,1.11-.71,1.8-.73a4.15,4.15,0,0,1,2,.45,7.48,7.48,0,0,0,2.46.48c14.23.08,28.46,0,42.69,0a5.16,5.16,0,0,0,1.45-.15,3,3,0,0,0,.47-.43,2.56,2.56,0,0,1,.41-.5,1.73,1.73,0,0,1,.58-.34c1-.06,2-.63,3.07-.52a2.26,2.26,0,0,1,.67.17C76.95,72.71,77.83,72.87,78.14,73.69Z"/><path class="cls-6" d="M77.64,24.79H21.34l.49-.49a3.23,3.23,0,0,1,1.92-.24H75.22a3.23,3.23,0,0,1,1.92.24h.49Z"/><path class="cls-7" d="M77.14,24.3H21.83a4.38,4.38,0,0,1,2.86-.49H74.28A4.38,4.38,0,0,1,77.14,24.3Z"/><path class="cls-6" d="M25.79,75.17h47.9a2.07,2.07,0,0,1-1.48.49,3.22,3.22,0,0,1-1.92.24H28.2a3.22,3.22,0,0,1-1.92-.24Z"/><path class="cls-7" d="M26.28,75.66H72.2a4,4,0,0,1-2.61.49H28.89A4,4,0,0,1,26.28,75.66Z"/><path class="cls-8" d="M57.9,69.74c7.64,0,15.28,0,22.92,0,1.76,0,2.93.42,2.74,2.47-1.66.75-3.24-.26-4.86-.21-5.85.1-11.71-.38-17.55.41a16.44,16.44,0,0,0-3.76.94c-4.93.21-9.85.12-14.78,0a9.06,9.06,0,0,1-2.85-.72c-6.72-1-13.48-.72-20.23-.63-1.2,0-2.39.58-3.61.17-1.07-2.5.88-2.4,2.27-2.42,5.09-.08,10.18,0,15.27,0h7.64c.77-.07,1.49.28,2.26.24a44.21,44.21,0,0,0,14.16-.19Z"/><path class="cls-9" d="M21.34,25.78l.5-.49a3.25,3.25,0,0,0,1.92.24H75.7a3.29,3.29,0,0,0,1.92-.23h.51a4,4,0,0,1,2,3.92c0,12.33,0,24.67,0,37,0,.95.26,2-1,2.53a.87.87,0,0,1-.18-.76,2.75,2.75,0,0,0,.42-1.61c0-11.92,0-23.83,0-32.75-.05,9.13.07,21.26,0,33.39a.58.58,0,0,1-.75.35,1.6,1.6,0,0,1-.65-1.21c-.07-10.93,0-21.86,0-32.79,0-1,0-2-.06-3a3.14,3.14,0,0,0-3.23-3.31C73.52,27,72.45,27,71.39,27H25.53a14.7,14.7,0,0,1-3.44-.16C21.63,26.64,21.26,26.37,21.34,25.78Z"/><path class="cls-10" d="M79.61,67.27l-.49,1a5.27,5.27,0,0,1-2.66.23l-53.94,0a5.38,5.38,0,0,0-2.66.23l-.51-.47v-1c.61-1.11,1.46-.75,2.32-.4a7,7,0,0,0,2,.15C41.34,67,59,67,76.71,67a3.21,3.21,0,0,1,1.91.27h.49Q79.37,66.76,79.61,67.27Z"/><path class="cls-9" d="M19.86,68.74c1-.68,2.05-.48,3.1-.48H79.12q0,.24,0,.48Z"/><path class="cls-1" d="M42.56,70.73l-1.47-1c1.19-.82,2.56-.54,3.84-.48,4.32.23,8.69-.65,13,.47h0A4.9,4.9,0,0,1,54.07,71C50.24,70.77,46.39,71.28,42.56,70.73Z"/><path class="cls-11" d="M15.91,72.21c1-.17,1.84-1.1,3-1,.7.79,1.64.37,2.48.5a3.68,3.68,0,0,1,.68.09,1.57,1.57,0,0,1,1.07.87,1.06,1.06,0,0,1-.3,1h-2A8.17,8.17,0,0,1,15.91,72.21Z"/><path class="cls-5" d="M79.12,71.22c1.63-.37,2.91.9,4.44,1-1.22.74-2.4,1.61-3.95,1.48-.94-1.06-2.51.07-3.45-1h0a.49.49,0,0,1,0-.66c.51-.42,1.13-.28,1.71-.32S79,72.09,79.12,71.22Z"/><path class="cls-11" d="M76.16,72.7c1.07,0,2.13,0,3.2,0s.56.53.25,1H78.14C77.33,73.66,76.47,73.73,76.16,72.7Z"/><path class="cls-12" d="M20.84,67.27a1.58,1.58,0,0,0-1.47,0c0-12.45,0-24.9,0-37.34,0-1.78.34-3.24,2-4.14l.5.5c.42.88-.15,1.7-.14,2.56-.27,11.74,0,23.48-.13,35.22C21.56,65.16,21.95,66.4,20.84,67.27Z"/><path class="cls-13" d="M77.63,25.3a4.39,4.39,0,0,1-2.86.48H24.7a4.38,4.38,0,0,1-2.86-.48Z"/><path class="cls-14" d="M78.13,72.2h-2c-1.12.43-2.34.55-3.46,1h-.48c-.93,1-2.13.73-3.26.73q-20.6,0-41.2,0c-.29,0-.58,0-.87-.05-1.7-.51-3.39-1-5-1.66h-.49c0-.37.12-.7.48-.7,6.1.06,12.2-.34,18.29.2a8.53,8.53,0,0,0,4.49,1H57.38c1.75-1.31,3.76-1.27,5.82-1.25,4.33.05,8.66,0,13,0C76.84,71.51,77.89,70.86,78.13,72.2Z"/><path class="cls-15" d="M26.29,74.67a2.76,2.76,0,0,1-2-.49c.52-1.64,1.73-.8,2.72-.76,14.17,0,28.34,0,42.51,0a5.36,5.36,0,0,1,2.66.23c.67.13,1.6-.34,1.94.53.15.39-.56.4-.94.46a3.24,3.24,0,0,0-1.92-.24H28.2A3.23,3.23,0,0,0,26.29,74.67Z"/><path class="cls-13" d="M26.29,74.67a4,4,0,0,1,2.61-.49H70.57a4,4,0,0,1,2.61.49Z"/><path class="cls-14" d="M72.19,73.68H26.79q-.2-.15-.14-.32t.12-.17H72.21Q72.2,73.44,72.19,73.68Z"/><path class="cls-16" d="M26.77,73.19q0,.24,0,.48a3.75,3.75,0,0,0-2.48.5l-1.48-.5v-1c1.42-.68,2.64.26,3.95.5Z"/><path class="cls-14" d="M72.7,73.19a5.43,5.43,0,0,1,3.46-1v.49Z"/><path class="cls-14" d="M78.13,72.2c-.94-.69-2-.48-3.08-.48-3.42,0-6.85,0-10.27,0a17.54,17.54,0,0,0-7.4,1,5.34,5.34,0,0,1,4.25-1.5c5.83.06,11.66,0,17.49,0,.25.21.74.55.71.6C79.42,72.56,78.7,72,78.13,72.2Z"/><path class="cls-14" d="M40.11,71.71H24.17a4.34,4.34,0,0,0-2.84.49c-.81-.34-2.25.87-2.45-1H37.27A4.31,4.31,0,0,1,40.11,71.71Z"/><path class="cls-3" d="M42.56,70.73c3.28,0,6.57-.06,9.85,0a10.75,10.75,0,0,0,5.48-1c-.4.64-.89,1.33-1.67,1.34C51.67,71.09,47.09,71.73,42.56,70.73Z"/><path class="cls-17" d="M20.84,67.27V27.76c1.77.45,1.2,1.93,1.2,3,.05,9.78,0,19.56,0,29.34,0,1.54-.2,3.16,1,4.45a4.69,4.69,0,0,0,3.48,1q22.94,0,45.88,0a5,5,0,0,0,3.29-.79,6,6,0,0,0,.57-.7c.76-1.37.62-2.87.62-4.34,0-9.6,0-19.21,0-28.81,0-1.09-.34-2.34,1-3.19.83.69.48,1.63.48,2.43,0,11.16,0,22.33,0,33.49a5.22,5.22,0,0,0,.23,2.66v1a6.6,6.6,0,0,1-3.13.49H23.7A4.54,4.54,0,0,1,20.84,67.27Z"/><path class="cls-18" d="M21.83,65.79c-.69-1-.48-2.05-.48-3.1q0-15.91,0-31.81c0-1.05.21-2.15-.48-3.1l1-1.48H74.66c3.58,0,4,.39,4,4q0,18,0,36c-.69-.95-.48-2-.48-3.1q0-16,0-32V28.75l-.49,0v2.43q0,15.51,0,31c0,1.05.2,2.15-.45,3.11-1.12-.86-.76-2.1-.76-3.2,0-8.88,0-17.77,0-26.65,0-.82,0-1.65,0-2.47-.09-3.6-.83-4.36-4.35-4.46H70.81q-21.35,0-42.69,0c-1.54,0-3.15-.22-4.5.86-1.19,1.18-1,2.71-1,4.17,0,9.68,0,19.36,0,29C22.55,63.67,22.91,64.91,21.83,65.79Z"/><path class="cls-19" d="M79.61,67.27h-.49V28.65h.49Z"/><path class="cls-14" d="M26.77,73.2l-3.95-.5-1-.49C23.54,72.21,25.28,72.05,26.77,73.2Z"/><path class="cls-20" d="M22.33,27.77H73.91c3,0,3.23.21,3.24,3.23q0,17.15,0,34.31,0,.25,0,.49A3.84,3.84,0,0,1,75,66c-16.78,0-33.56,0-50.34.05-2,0-2.61-.53-2.59-2.58.1-11.19,0-22.37.06-33.56A3.84,3.84,0,0,1,22.33,27.77Z"/><path class="cls-19" d="M22.33,27.77c0,11.66.06,23.33,0,35,0,2.39.77,3.08,3.11,3.07,17.25-.08,34.5,0,51.75,0a4.33,4.33,0,0,1-2.86.49H24.69a4.39,4.39,0,0,1-2.86-.49q0-17.46,0-34.92C21.84,29.81,21.63,28.71,22.33,27.77Z"/><path class="cls-14" d="M23.28,26.88H76.21v.25H23.35Z"/><path class="cls-19" d="M76.16,64.8a4.39,4.39,0,0,1-2.85.49c-15.77,0-31.53,0-47.29.05-2.46,0-3.27-.68-3.24-3.2.13-10.18,0-20.36.06-30.54a4.4,4.4,0,0,1,.49-2.85l.37.27a2.71,2.71,0,0,1,.41.82,10.54,10.54,0,0,1,.2,3.65c-.07,9,.18,18-.1,27,0,1-.28,2.38,1.1,3a11.31,11.31,0,0,0,4.61.54q21.28,0,42.56,0a6.65,6.65,0,0,1,3.38.37Z"/><path class="cls-19" d="M23.31,28.74a4.42,4.42,0,0,1,2.86-.49H73.28c3.17,0,3.36.19,3.37,3.35q0,15.17,0,30.34a4.42,4.42,0,0,1-.49,2.86h0c-1-.92-.72-2.12-.72-3.24,0-8.84,0-17.68,0-26.52a9,9,0,0,0-.62-4.33,1.71,1.71,0,0,0-.65-.62A14.81,14.81,0,0,0,69,29.49q-21.09,0-42.19,0c-1.2,0-2.5.29-3.51-.72Z"/><path class="cls-21" d="M24.3,64.8c-1.36-.55-1-1.77-1-2.77q0-16.39,0-32.79A3.2,3.2,0,0,1,25.24,29H73.75a3.3,3.3,0,0,1,1.92.24h0a3.31,3.31,0,0,1,.24,1.93c0,10.37,0,20.73.05,31.1,0,1.86-.5,2.34-2.34,2.33-15.55-.07-31.1,0-46.64,0A5.21,5.21,0,0,0,24.3,64.8Z"/><path class="cls-1" d="M24.3,64.8c1-.74,2.22-.48,3.35-.48q22.2,0,44.41,0c3.59,0,3.6,0,3.6-3.49q0-15.79,0-31.58a4.39,4.39,0,0,1,.48,2.85q0,16.35,0,32.7Z"/><path class="cls-1" d="M75.67,29.24H23.32q0-.24,0-.49,24.5,0,49,0C73.45,28.77,74.63,28.51,75.67,29.24Z"/><path class="cls-1" d="M29.74,60.85c-.62.72,1.49,2.48-.91,2.49-1.68,0-3.77.88-3.71-2.36.18-9.34.13-18.68.19-28,0-.89-.09-2,1.14-2.12s2.46-.6,3.13.66c1.09,2,1.51.39,2.15-.27l.32.31-.32-.3a15.81,15.81,0,0,1,5.76-1q16.51,0,33,0c3.93,0,4.18.27,4.18,4.21q0,13.06,0,26.12c0,3-.21,3.19-3.22,3.25-9.19.16-18.36-.56-27.54-.71-3.11,0-6.22.15-9.33.2a4.06,4.06,0,0,1-2.84-.51c1.3-1.37,3-.41,4.45-.77-1.47.36-3.15-.6-4.45.77-.62-.7-.58-2.07-2-2-.53-1-1.77-.82-2.42-1.54l-.07-.09a.38.38,0,0,0,0,.13C28,60.06,29.21,59.85,29.74,60.85Z"/><path class="cls-21" d="M32.17,36.63H50c.15-.23.29-.22.42,0,2.28-.28,4.53.58,6.83.1,1.07-.22,2.16-.22,2.31-2.31.82,1.51,1.6,2.41,1.19,3.24s-1.64.44-2.5.45c-8.11,0-16.22,0-24.32,0-.95,0-2.57.57-2.22-1.51C31.91,36.38,32,36.41,32.17,36.63Z"/><path class="cls-13" d="M44.5,39.46c1.22-1.19,2.34-.81,3.35-.82,3.86,0,7.72,0,11.57,0,.56,0,1.31,0,1.34.73,0,.59-.64.69-1.13.68q-6.89,0-13.78-.11A5.34,5.34,0,0,1,44.5,39.46Z"/><path class="cls-22" d="M62.33,49c.92,1.89.1,2.5-1.76,2.48-3.17,0-6.33,0-9.5,0-.79,0-1.79.14-2.06-.86s.87-1.16,1.47-1.6A30.67,30.67,0,0,1,62.33,49Z"/><path class="cls-13" d="M44.51,61.38c4.26,0,8,0,11.66,0,.31,0,.7.1.72.51a.85.85,0,0,1-.3.59C55.66,63.3,46.24,62.75,44.51,61.38Z"/><path class="cls-23" d="M32.17,36.63l-.43,0c0-1.36.75-1.89,2-1.89,2,0,3.92,0,5.88,0,.61,0,1.51-.06,1.45.85,0,.75-.88.52-1.41.58C37.18,36.4,34.62,35.66,32.17,36.63Z"/><path class="cls-13" d="M60,46.06c1.14,0,2.28,0,3.42,0,.4,0,.89.06.93.58a.72.72,0,0,1-.79.74q-3.66.05-7.33,0a.74.74,0,0,1-.81-.73c0-.51.51-.59.91-.6C57.53,46,58.75,46.06,60,46.06Z"/><path class="cls-23" d="M41.08,54.91c-3.11-.28-6.29.56-9.36-.48-.07-.85.45-1.2,1.18-1.22,2.62,0,5.24-.13,7.85,0C42.22,53.33,42.08,54.13,41.08,54.91Z"/><path class="cls-24" d="M47.52,52.95c2.69,0,5.39,0,8.08,0,.76,0,1.91-.15,1.87,1s-1.17.93-1.94.93c-3.49,0-7,0-10.48,0a1.1,1.1,0,0,1,.39-1.59C46.09,53,46.89,53.46,47.52,52.95Z"/><path class="cls-7" d="M62.33,49H50.48A1.47,1.47,0,0,1,52,48c3.82,0,7.64,0,11.53.36Z"/><path class="cls-3" d="M47,56.4c1.26,1.06,1.18,2.24-.44,2.32-3.3.15-6.65.69-9.92-.36,1.39-1.31,3.1-.55,4.66-.71a21.75,21.75,0,0,1,2.51,0c-2.09.47-4.77-.83-7.17.73-.64-.65-.32-1.31,0-2A22.85,22.85,0,0,1,47,56.4Z"/><path class="cls-7" d="M47,56.4H36.65c-1.1-.61-2.35-.45-3.52-.95H45.72A1.33,1.33,0,0,1,47,56.4Z"/><path class="cls-24" d="M58.88,54.42c-.54-1.09.25-1.38,1-1.4C62.43,53,65,53,67.53,53c.58,0,1.26.13,1.32.84.08.91-.7,1-1.35,1-2.71,0-5.43,0-8.14,0-.12-1,.68-.92,1.27-1,1-.06,2,0,2.74,0C62,54.09,60.36,53.56,58.88,54.42Z"/><path class="cls-25" d="M47.52,52.95a2.82,2.82,0,0,1-2,.5c-.5.48-1.14.82-1.47,1.47h-3c.15-.46.41-1.24-.18-1.24-3.08,0-6.28-1.25-9.19.75-.38-1.89,1.1-1.45,2-1.46C38.31,52.92,42.91,52.95,47.52,52.95Z"/><path class="cls-23" d="M31.73,62.8c.09-1.58,1.26-1.56,2.31-1.44,1.54.18,4.46-.53,4.34.56-.19,1.76-2.71.59-4.21.86a13.79,13.79,0,0,1-2.45,0Z"/><path class="cls-7" d="M32.2,49a59.42,59.42,0,0,1,11.55-.94A1.34,1.34,0,0,1,45,49a1.75,1.75,0,0,1-1.5.69q-4.92.11-9.84,0A1.75,1.75,0,0,1,32.2,49Z"/><path class="cls-23" d="M58.88,54.42c2.82-2,5.82-.65,8.75-.58C65,55,62,53.75,59.36,54.9Z"/><path class="cls-4" d="M31.71,51V49.5a75.71,75.71,0,0,1,13.82,0L46,51a1,1,0,0,1-1.13.11A49.58,49.58,0,0,0,32.44,51,.57.57,0,0,1,31.71,51Z"/><path class="cls-26" d="M42,46c.71.22,2.05-.37,2,.72s-1.43.76-2.27.76-2.07.3-2-.72S41.21,46.2,42,46Z"/><path class="cls-25" d="M31.71,51h.51c3.29-1,6.66-.26,10-.46A3.82,3.82,0,0,1,45,51h1c-2.2,1-4.53.47-6.79.45C36.73,51.4,34.16,52,31.71,51Z"/><path class="cls-26" d="M50.45,36.64H50c.67-2.25,1.89-2.56,4.57-1C53.33,36.71,51.6,35.67,50.45,36.64Z"/><path class="cls-27" d="M40.41,38.56c.82.24,2.1-.36,2.14.72s-1.22.8-2,.79-2,.27-1.91-.85C38.7,38.24,39.89,38.87,40.41,38.56Z"/><path class="cls-26" d="M34.15,38.59c.71.24,2-.4,2,.74,0,1-1.27.73-2,.74s-1.83.16-1.85-.69C32.22,38.14,33.48,38.85,34.15,38.59Z"/><path class="cls-6" d="M45.54,49.5H31.71l.49-.5H45Z"/><path class="cls-26" d="M43.38,35.62c.35-.37.4-.45.47-.48a3.55,3.55,0,0,1,3.51,0c.32.18.35.68,0,.79A4.55,4.55,0,0,1,43.38,35.62Z"/><path class="cls-21" d="M32.32,33.32c2.65-.33,5.22.85,7.86.66H32.33Z"/><path class="cls-21" d="M27.24,58.86c1.39,0,2.51.27,2.5,2-1.17-.4-3.63,1.07-2.94-2C27,58.62,27.11,58.62,27.24,58.86Z"/><path class="cls-21" d="M29.74,36.65v1.48c-1-.29-2.74.68-2.75-.86C27,36.25,28.76,36.81,29.74,36.65Z"/><path class="cls-21" d="M27.23,51.45a1.17,1.17,0,0,1,.24,0c.7.17,1.79-.37,1.9.85,0,.57-.66.6-1.13.6-1,0-1.87-.12-1.44-1.5Q27,51.1,27.23,51.45Z"/><path class="cls-21" d="M29.78,44a1.8,1.8,0,0,1-2.44,1.39c-.34-.08-.68-.41-.5-.68C27.56,43.6,28.76,44.27,29.78,44Z"/><path class="cls-21" d="M36,40.94a4.29,4.29,0,0,1-4,.2A4.94,4.94,0,0,1,36,40.94Z"/><path class="cls-21" d="M26.31,33.86a2.66,2.66,0,0,1,3.11-.22C28.49,34.36,27.7,34.19,26.31,33.86Z"/><path class="cls-21" d="M26.42,41.1A2.74,2.74,0,0,1,29.35,41C28.46,41.84,27.67,41.65,26.42,41.1Z"/><path class="cls-19" d="M41.78,62.72c-.44,0-.87-.12-.89-.62s.36-.67.79-.69,1,0,1,.67C42.61,62.55,42.14,62.63,41.78,62.72Z"/><path class="cls-28" d="M27.23,51.45l-.44,0c0-.83.13-1.65,1.2-1.75.43,0,.9.19.86.62C28.78,51.22,27.67,50.9,27.23,51.45Z"/><path class="cls-21" d="M26.42,48.51a2.74,2.74,0,0,1,2.93-.09C28.46,49.25,27.67,49.06,26.42,48.51Z"/><path class="cls-28" d="M27.24,58.86l-.44,0c0-.83.13-1.65,1.2-1.75.43,0,.9.19.86.62C28.78,58.63,27.67,58.3,27.24,58.86Z"/><path class="cls-21" d="M29.84,55.74a3.22,3.22,0,0,1-3.32.28C27.58,55.17,28.38,55.46,29.84,55.74Z"/><path class="cls-28" d="M28.89,39.11c-.09.59-.39.82-.83.82s-.85-.13-.9-.6.37-.64.79-.66A.93.93,0,0,1,28.89,39.11Z"/><path class="cls-28" d="M28.89,31.87a.85.85,0,0,1-.95.66c-.44,0-.81-.25-.78-.71s.51-.54.91-.54A.72.72,0,0,1,28.89,31.87Z"/><path class="cls-8" d="M31.72,31.23a1.27,1.27,0,0,1,.24,0c.65.12,1.53-.35,1.82.67,0,.13-.22.46-.4.53-1.08.37-1.45-.32-1.66-1.2Z"/><path class="cls-28" d="M28.06,54.76c-.42,0-.85-.13-.9-.6s.36-.66.78-.66.88,0,.9.55S28.5,54.71,28.06,54.76Z"/><path class="cls-26" d="M52.18,46.07c.44,0,.89.12.88.62s-.43.66-.85.66-.84-.2-.85-.66S51.8,46.12,52.18,46.07Z"/><path class="cls-28" d="M27.94,36.11c-.42,0-.84-.17-.77-.68s.49-.6.91-.59.81.25.78.71S28.34,36.07,27.94,36.11Z"/><path class="cls-28" d="M27.95,47.35c-.43-.06-.81-.25-.79-.72s.51-.55.9-.55.84.15.78.66S28.37,47.32,27.95,47.35Z"/><path class="cls-8" d="M33.81,42.85c0,.52-.38.66-.81.66s-.88,0-.9-.55.35-.69.79-.7A.82.82,0,0,1,33.81,42.85Z"/><path class="cls-28" d="M28.88,62a.83.83,0,0,1-.89.65c-.43,0-.84-.21-.85-.66s.45-.6.86-.6S28.8,61.51,28.88,62Z"/><path class="cls-19" d="M58.37,35.36a.74.74,0,0,1-.81.69c-.41,0-.86-.07-.89-.58s.33-.69.78-.69S58.25,34.88,58.37,35.36Z"/><path class="cls-28" d="M28.87,42.85c0,.51-.38.66-.8.66s-.88,0-.9-.55.35-.69.79-.7A.82.82,0,0,1,28.87,42.85Z"/><path class="cls-29" d="M44.06,54.92c-1.38-2.36.81-1.16,1.47-1.47L45,54.91Z"/><path class="cls-21" d="M31.07,39.14c0,.33-.15.67-.53.66-.8,0-.7-.68-.8-1.2s0-.54.46-.41S31.06,38.57,31.07,39.14Z"/><path class="cls-21" d="M30.54,35a.61.61,0,0,1,.52.68c0,.72-.51,1-1.1,1s-.18-.46-.18-.66C29.79,35.47,29.89,35,30.54,35Z"/><path class="cls-21" d="M30.54,42.37a.61.61,0,0,1,.52.68c0,.72-.51,1-1.1,1s-.18-.46-.18-.66C29.79,42.88,29.89,42.38,30.54,42.37Z"/><path class="cls-23" d="M61.91,50.45c-.94.84-2,.51-2.85.48s-2.17.54-2.09-.73c.06-1,1.46-.65,2.3-.67A3.22,3.22,0,0,1,61.91,50.45Z"/><path class="cls-30" d="M54.46,50.24c-.27.34-.31.43-.37.45a4.56,4.56,0,0,1-3.51,0c-.29-.14-.24-.62.11-.79A3.85,3.85,0,0,1,54.46,50.24Z"/><path class="cls-10" d="M48.24,54.21a20.1,20.1,0,0,1,7.94-.64v.64Z"/><path class="cls-31" d="M36.66,58.37a1.61,1.61,0,0,1,1.73-1.42c2.3,0,4.61,0,6.91,0,.54,0,1.3,0,1.2.86-.07.62-.75.54-1.21.55-2.88,0-5.76,0-8.64,0Z"/><path class="cls-13" d="M45,51H32.22a1.44,1.44,0,0,1,1.53-1h9.76A1.44,1.44,0,0,1,45,51Z"/></g></g></svg>