<svg xmlns="http://www.w3.org/2000/svg" viewBox="0 0 99.91 100.41"><defs><style>.cls-1{fill:#fefefe;}.cls-2{fill:#8cb6dc;}.cls-3{fill:#a3a3e4;}.cls-4{fill:#9fa6e3;}.cls-5{fill:#98ace1;}.cls-6{fill:#81c0d8;}.cls-7{fill:#7ec2d7;}.cls-8{fill:#a6a1e5;}.cls-9{fill:#84bed9;}.cls-10{fill:#7cc4d6;}.cls-11{fill:#a89fe6;}.cls-12{fill:#aa9ce7;}.cls-13{fill:#89b9db;}.cls-14{fill:#79c7d5;}.cls-15{fill:#77c9d4;}.cls-16{fill:#ad9ae8;}.cls-17{fill:#9da8e2;}.cls-18{fill:#73cbd3;}.cls-19{fill:#9aaae1;}.cls-20{fill:#86bbda;}.cls-21{fill:#af98e9;}.cls-22{fill:#92b1de;}.cls-23{fill:#71ced2;}.cls-24{fill:#8fb4dd;}.cls-25{fill:#9ca8e2;}.cls-26{fill:#b296ea;}.cls-27{fill:#95afdf;}.cls-28{fill:#85bcda;}.cls-29{fill:#96aee0;}.cls-30{fill:#6ed0d1;}.cls-31{fill:#b693eb;}.cls-32{fill:#b990ec;}.cls-33{fill:#8eb4dd;}.cls-34{fill:#6cd2d0;}.cls-35{fill:#b494ea;}.cls-36{fill:#90b3de;}.cls-37{fill:#69d5cf;}.cls-38{fill:#bb8eed;}.cls-39{fill:#bd8cee;}.cls-40{fill:#66d7cf;}.cls-41{fill:#7ca2ca;}.cls-42{fill:#77a6c8;}.cls-43{fill:#7da0cb;}.cls-44{fill:#8eb2dc;}.cls-45{fill:#8eb4dc;}.cls-46{fill:#8b95d0;}.cls-47{fill:#849bcd;}.cls-48{fill:#8897ce;}.cls-49{fill:#95addf;}.cls-50{fill:#74a9c8;}.cls-51{fill:#7e9fcb;}.cls-52{fill:#819dcc;}.cls-53{fill:#829dcc;}.cls-54{fill:#94aede;}.cls-55{fill:#82a4cf;}.cls-56{fill:#8aa7d5;}.cls-57{fill:#7fa0cb;}.cls-58{fill:#90b3dd;}.cls-59{fill:#92b0de;}.cls-60{fill:#94afdf;}</style></defs><title>thumbnail-1</title><g id="Layer_2" data-name="Layer 2"><g id="Layer_1-2" data-name="Layer 1"><path class="cls-1" d="M.14,50c0-16.06,0-32.12,0-48.19C.09.3.39,0,1.87,0Q50.05.08,98.24,0C99.71,0,100,.3,100,1.77q-.08,48.43,0,96.87c0,1.47-.3,1.77-1.77,1.77q-48.19-.08-96.37,0c-1.47,0-1.78-.3-1.77-1.77C.16,82.41.14,66.18.14,50Z" transform="translate(-0.1)"/><path class="cls-2" d="M.71,88.49V82.57c3.11-3.48,6.57-6.62,9.81-10,6.18-6.41,12.61-12.58,18.77-19,3.94-4.38,8.16-8.47,12.43-12.53,12.89-13.16,26-26.09,39-39.16.47-.47,1-.88,1.48-1.3h5.93c.71,1.47-.62,2.06-1.34,2.79-4.69,4.78-9.45,9.49-14.19,14.23a6.47,6.47,0,0,0-2.08,3c-.57,1-1.64,1.31-2.57,1.79a50.58,50.58,0,0,0-8.56,6.1,2.34,2.34,0,0,0-.73,2.83,1.47,1.47,0,0,1-1.52,1.26,2.58,2.58,0,0,0-2.47.7C48.42,40.13,42.21,47,36.3,54.16c-1,1.2-2.16,2.25-3.09,3.51-.53.88-1,1.84-2,2.27-1.7,1-1.76,3.41-3.73,4.12-1.29.11-2,1.14-2.76,1.93C17.73,72.82,10.95,79.86,4,86.71,3.08,87.59,2.3,88.83.71,88.49Z" transform="translate(-0.1)"/><path class="cls-3" d="M99.4,32.66q0,3.46,0,6.92C96,43.33,92.34,46.93,88.6,50.38c-1.46,1.35-2.69,2.88-4.08,4.27C73,66.13,61.44,77.6,50,89.19c-2.93,3-6,5.85-8.72,9a5.26,5.26,0,0,1-1.6,1.11H32.78c-.32-1.92,1.25-2.75,2.3-3.79C49.51,81.11,64,66.72,78.28,52.19,84.39,46,90.73,40,96.73,33.71,97.43,33,98.11,32,99.4,32.66Z" transform="translate(-0.1)"/><path class="cls-4" d="M99.4,32.66c-2,.16-2.92,1.91-4,3.06-4.1,4.46-8.75,8.35-12.85,12.76-9.69,10.43-20.14,20.1-30,30.39C49,82.68,44.94,86.11,41.47,90c-2.81,3.18-6.61,5.43-8.7,9.27H26.33c-.65-1,.11-1.56.65-2.1Q37.7,86.38,48.53,75.65A2.37,2.37,0,0,1,50,74.87c1.47.78,2.28.22,3.11-1.16,1.44-2.39,2.47-5,4-7.32a17.58,17.58,0,0,0,3.05-2.47Q76.9,47.19,93.65,30.51c1.22-1.21,2.11-2.75,3.6-3.68.65-.4,1.2-1.25,2.15-.59Z" transform="translate(-0.1)"/><path class="cls-5" d="M99.4,9.93q0,2.73,0,5.45a8.77,8.77,0,0,1-2.26,2.89q-18,18-35.93,35.93a12.56,12.56,0,0,0-2.77,3.44A179.21,179.21,0,0,1,45.69,70.5a8.8,8.8,0,0,0-2.77,2C36.44,79,29.89,85.4,23.5,92c-2.44,2.52-4.95,5-7.53,7.32H12.5c-.62-1.8.8-2.75,1.77-3.69,6-5.93,11.82-12.06,17.91-17.91,3.13-3,6-6.28,9-9.37a5,5,0,0,0,1-1.7c2.74-3.3,6.21-5.8,9.39-8.61,4.92-4.34,9.82-8.7,14.65-13.13A3.09,3.09,0,0,0,67,42.42a1.57,1.57,0,0,1,1.58-1.22c1.13.16,1.77-.51,2.45-1.29a38.32,38.32,0,0,0,6.43-9.55,5.56,5.56,0,0,1,1.35-2c4.87-3.56,8.65-8.27,13-12.38,1.73-1.63,3.34-3.39,5.08-5C97.6,10.3,98.19,9.27,99.4,9.93Z" transform="translate(-0.1)"/><path class="cls-6" d="M58.45.61h5.44c.63,1.5-.53,2.28-1.35,3.09C55.91,10.3,49.37,17,42.75,23.59c-4.12,4.1-8.16,8.29-12.4,12.29-3.51,3.31-6.74,7-10.14,10.41C14.84,51.73,9.34,57,4,62.49c-.88.89-1.67,2.14-3.27,1.78V58.36c4.35-4,8.2-8.48,12.54-12.47,3.8-3.5,7.36-7.24,10.91-11,3.28-3.44,6.73-6.71,10-10.13,6.22-6.44,12.6-12.73,19-19A72,72,0,0,1,58.45.61Z" transform="translate(-0.1)"/><path class="cls-7" d="M58.45.61a1.91,1.91,0,0,1-.63,1.29c-4.65,4.65-9.35,9.25-13.93,14-4.05,4.18-8.22,8.25-12.25,12.46-2.51,2.63-5.1,5.27-7.87,7.7-2.45,2.15-4.25,5-6.83,7s-4.47,5.17-7.33,7.17C7,52,5.54,54.94,3.21,57c-.73.66-1.34,1.49-2.5,1.32q0-2.73,0-5.46a51,51,0,0,1,4-4.64Q27.8,25.17,50.87,2.09A20.06,20.06,0,0,1,52.52.61Z" transform="translate(-0.1)"/><path class="cls-8" d="M39.69,99.31c2.41-3.76,6-6.47,9-9.6,11.7-12,23.64-23.76,35.49-35.61q6.51-6.51,13-13c.62-.62,1.12-1.46,2.16-1.5q0,2.73,0,5.45C96.66,48,94,51,91.19,53.84c-5.38,5.32-10.65,10.74-16,16-9.91,9.74-19.5,19.81-29.54,29.43Z" transform="translate(-0.1)"/><path class="cls-9" d="M.71,64.27a8.56,8.56,0,0,0,2.75-2c3.7-3.72,7.47-7.38,11.11-11.15,4.73-4.9,9.53-9.75,14.31-14.58C34,31.33,39.34,26.37,44.36,21.13,49.57,15.69,55.26,10.73,60.17,5c1.25-1.46,3.3-2.24,3.72-4.4h4.45c.5,2-1.1,3-2.23,4C61.34,8.77,57.29,13.65,52.74,18c-6.21,6-11.87,12.52-18.4,18.18-2.86,2.48-5,5.69-7.91,8.13a2.76,2.76,0,0,0-.82,1.76c-.48,1.06-1.51,1.67-2.14,2.61C16.65,55,10.34,61.77,3.68,68.21c-.79.77-1.39,2.19-3,1.51Z" transform="translate(-0.1)"/><path class="cls-10" d="M52.52.61c-.1,1.22-1.13,1.77-1.86,2.51Q27.81,26,4.9,48.86c-1.37,1.37-2.11,3.41-4.19,4q0-3,0-5.91a18.93,18.93,0,0,1,1.83-2q18-18,35.93-35.94c2.84-2.84,5.6-5.77,8.6-8.44Z" transform="translate(-0.1)"/><path class="cls-11" d="M45.61,99.31c.07-1.13,1-1.65,1.68-2.33Q56.13,88.08,65,79.22c6.65-6.65,13.37-13.22,19.91-20,3.35-3.45,7.07-6.55,10-10.4A15.46,15.46,0,0,1,99.4,45q0,2.71,0,5.42c-9.2,9.29-18.32,18.66-27.68,27.8-7.12,7-13.88,14.27-21.17,21.05Z" transform="translate(-0.1)"/><path class="cls-12" d="M50.55,99.31c0-.84.65-1.29,1.15-1.82C56.91,92,62.2,86.6,67.6,81.34c7.82-7.63,15.46-15.45,23.29-23.07,2.09-2,4-4.26,6-6.42a4.22,4.22,0,0,1,2.53-1.4q0,2.48,0,5A91.48,91.48,0,0,1,92,63.31c-5.22,5-10.2,10.21-15.34,15.27-6.6,6.51-13.09,13.14-19.58,19.77-.35.35-.77.61-1.13.95Z" transform="translate(-0.1)"/><path class="cls-13" d="M82.18.61c-.07,1.13-1,1.66-1.68,2.33Q64,19.43,47.56,35.9c-1.84,1.85-3.62,3.76-5.43,5.65-.4-.3-.88-.06-1.3-.21-1.09-.43-2.8.34-3.25-1.14s1-2.12,1.88-3c6.94-6.89,13.8-13.86,20.67-20.81,4.67-4.72,9.7-9.1,13.93-14.26A5.83,5.83,0,0,1,76.23.61Z" transform="translate(-0.1)"/><path class="cls-14" d="M47.07.61C45.29,4,42.16,6.08,39.6,8.69,27.43,21,15.13,33.24,2.87,45.48,2.25,46.1,1.75,46.95.71,47q0-2.72,0-5.44A22,22,0,0,1,3.06,39Q19,23.1,34.89,7.18C37,5,39,2.75,41.16.61Z" transform="translate(-0.1)"/><path class="cls-15" d="M41.16.61a2.15,2.15,0,0,1-.64,1.79c-7.36,7-14.27,14.51-21.67,21.51C13.41,29,8.31,34.55,3,39.87c-.67.68-1.2,1.62-2.33,1.69q0-3,0-5.93c2.89-3.26,6.09-6.22,9.16-9.3q12-12.05,24-24.05A19,19,0,0,1,35.72.61Z" transform="translate(-0.1)"/><path class="cls-16" d="M56,99.3c0-1,.89-1.54,1.51-2.16,5.39-5.41,10.91-10.69,16.15-16.24S84.18,70.38,89.38,65c3.2-3.29,5.88-7.29,10-9.63q0,2.72,0,5.44a28.28,28.28,0,0,1-4,4.6c-11,10.83-21.71,21.88-32.65,32.73-.41.41-.88.74-1.3,1.12Z" transform="translate(-0.1)"/><path class="cls-17" d="M99.4,26.24c-1.85.64-2.92,2.19-4.24,3.51C87.76,37.2,80.25,44.54,72.82,52c-4.24,4.23-8.41,8.52-12.6,12.8a7.83,7.83,0,0,1-2.76,2,1.49,1.49,0,0,1-.38-1.37A16.75,16.75,0,0,1,58,62.28a7.8,7.8,0,0,1,2.44-4.11Q76.19,42.7,91.66,27c1.73-1.75,3.5-3.46,5.27-5.17.65-.63,1.25-1.64,2.46-1Q99.4,23.52,99.4,26.24Z" transform="translate(-0.1)"/><path class="cls-18" d="M35.72.61c0,1-.88,1.54-1.5,2.16Q18.55,18.46,2.87,34.12c-.62.62-1.12,1.46-2.16,1.5q0-3.21,0-6.42c6-6.34,12.26-12.37,18.41-18.55,3.36-3.38,6.63-6.85,10.18-10Z" transform="translate(-0.1)"/><path class="cls-19" d="M99.4,20.8c-2.39.9-3.86,3-5.54,4.69-2,1.94-3.86,4-5.82,6Q73.87,45.66,59.57,59.73c-.83.82-.18,2-1.11,2.58-1.3-1.53-.4-3.28-.5-4.93a8.34,8.34,0,0,1,2.18-2.94Q72.79,41.81,85.42,29.17c4.64-4.62,9.32-9.2,14-13.79Q99.4,18.09,99.4,20.8Z" transform="translate(-0.1)"/><path class="cls-20" d="M76.23.61c-3.6,4.24-7.64,8-11.56,12-3.17,3.17-6.32,6.4-9.43,9.64-5.17,5.39-10.54,10.58-15.8,15.89-.59.6-1.82,1.08-1.39,2.07.35.81,1.51.2,2.27.41a4.34,4.34,0,0,1,.84.44c-2,1.29-4.49.44-6.58,1.38a24.37,24.37,0,0,1-2.6.52c-1.37,0-1.58-.69-.83-1.72A27,27,0,0,1,33.78,38Q51.88,19.85,70,1.73c.41-.41.88-.74,1.31-1.12Z" transform="translate(-0.1)"/><path class="cls-21" d="M61.42,99.31c.06-1.13,1-1.65,1.68-2.33q8.51-8.55,17.05-17.07L95,65c1.43-1.43,2.41-3.33,4.38-4.19q0,3,0,5.91a26.66,26.66,0,0,1-2.71,2.86c-9.63,9.64-19.29,19.25-28.82,29a3.91,3.91,0,0,1-1,.71Z" transform="translate(-0.1)"/><path class="cls-22" d="M3.6,99.3c-3.11.13-3.11.13-2.89-4.39,4.54-5.47,9.77-10.27,14.78-15.29,1-1,2.45-.86,3.4-1.8a28.08,28.08,0,0,1,2.26-2.5c3.59-3.55,7.13-7.14,10.71-10.69a4.19,4.19,0,0,0,1.53-2.42c.71-1.9,1.93-1.68,3.32-.79a9.08,9.08,0,0,1,1.18.72,2.86,2.86,0,0,1,1,1.79c-.19,1.41-1.46,1.67-2.39,2.3a162,162,0,0,0-12,12.25A7.61,7.61,0,0,1,22.85,80c-.7.6-1.75.88-1.85,2C15.24,87.8,9.53,93.67,3.6,99.3Z" transform="translate(-0.1)"/><path class="cls-13" d="M29.79,53.92c-3.52,3.61-7,7.28-10.74,10.65-2.56,2.28-4.73,5-7.13,7.44-3,3.05-6,6.06-9.06,9.06-.62.62-1.12,1.46-2.16,1.5q0-3.21,0-6.42C6.95,69.88,13,63.42,19.5,57.43c1.57-1.45,2.76-3.25,4.38-4.64.74-.63,1.31-1.49,2.38-1.65C27.91,51.47,28.76,52.81,29.79,53.92Z" transform="translate(-0.1)"/><path class="cls-23" d="M29.29.61c0,.94-.76,1.42-1.33,2Q15.34,15.24,2.7,27.87c-.57.57-1,1.31-2,1.33q0-3.21,0-6.43C6,18,10.73,12.7,15.73,7.66c2.35-2.37,4.78-4.68,7.14-7Z" transform="translate(-0.1)"/><path class="cls-20" d="M26.34,51.44,11.71,65.89c-3.3,3.26-6.59,6.54-9.91,9.78a3.45,3.45,0,0,1-1.09.47q0-3.21,0-6.43c1.13-.07,1.65-1,2.33-1.68q9-9,18-17.94c.68-.68,1.21-1.61,2.36-1.63,1.68-.09,2.23,1.33,3.1,2.33A.65.65,0,0,1,26.34,51.44Z" transform="translate(-0.1)"/><path class="cls-24" d="M19.41,78.13c-.41,1.77-2.25.55-3.26,1.66C13,83.26,9.52,86.48,6.08,89.69,4.25,91.4,3.27,94,.71,94.91q0-3.21,0-6.42a9.58,9.58,0,0,0,1.85-1.2c5.54-5.74,11.42-11.13,16.79-17,2.06-2.28,4.51-4.29,6.76-6.45.4-.38.82-.56,1.22,0,.4,1.37-.53,2.33-1.11,3.35-1.47,2.63-3.14,5.14-4.85,7.62C20.86,76,19.46,76.66,19.41,78.13Z" transform="translate(-0.1)"/><path class="cls-25" d="M50.05,75.16c-6.25,6.17-12.54,12.29-18.71,18.52-1.76,1.78-4,3.16-5,5.62H20.91c-.37-1.27.52-2,1.25-2.74,7.65-7.66,15.25-15.37,23-23a3.44,3.44,0,0,1,2.29-1.32,2.33,2.33,0,0,1,.7.15C49,73.16,50.23,73.67,50.05,75.16Z" transform="translate(-0.1)"/><path class="cls-19" d="M47.58,72.69c-2.53.87-4,3.1-5.71,4.86C35.66,84,29.2,90.17,23,96.57a8.84,8.84,0,0,0-2,2.74H16c1.52-3.23,4.63-5,7-7.5,6.47-6.89,13.3-13.44,20-20.13.75-.75,1.42-1.65,2.68-1.46C46.71,70.68,47.68,71.25,47.58,72.69Z" transform="translate(-0.1)"/><path class="cls-26" d="M66.87,99.31c.91-2.33,3-3.62,4.67-5.28C80.1,85.3,88.78,76.71,97.42,68.09c.57-.57,1-1.31,2-1.32q0,2.22,0,4.45c-6.85,7.23-14,14.14-21,21.19-2.33,2.33-4.55,4.76-7,6.91Z" transform="translate(-0.1)"/><path class="cls-27" d="M99.4,9.93c-1,0-1.53.88-2.15,1.5q-7,6.93-13.89,13.89a19.89,19.89,0,0,1-4.16,3.39,1.44,1.44,0,0,1-.41-1c.71-2.49,1.46-5,2.35-7.41.62-1.81,2.24-2.75,3.49-4,4-4,8-7.89,12-11.92.71-.73,1.33-2,2.79-1.33Z" transform="translate(-0.1)"/><path class="cls-28" d="M71.3.61c-.07,1.13-1,1.65-1.68,2.33C59.47,13.12,49.27,23.25,39.16,33.46c-2.58,2.61-5.43,5-7.57,8-.31.44-1,.9.18,1.07A9.76,9.76,0,0,1,25.33,46c-.8-1.31.46-2,1-2.59,7-7,14.1-13.8,21.07-20.78C53,17.12,58.3,11.43,63.77,5.87,65.41,4.21,67.54,3,68.34.61Z" transform="translate(-0.1)"/><path class="cls-29" d="M42.64,66.75c-.47,2.67-2.87,3.89-4.48,5.6C33,77.85,27.43,83,22.26,88.47c-3,3.21-6.68,5.8-9.14,9.53a9.85,9.85,0,0,0-.62,1.3h-4c-.71-1.48.62-2.07,1.35-2.8,5.25-5.32,10.55-10.59,15.84-15.88A19,19,0,0,0,29.34,76c2-2.57,5.09-3.69,7.68-5.45,1.39-.95,2.07-1.86,1.45-3.5A2.24,2.24,0,0,1,41,65.87,2.86,2.86,0,0,1,42.64,66.75Z" transform="translate(-0.1)"/><path class="cls-30" d="M22.87.61a9.12,9.12,0,0,1-3,4.07C16,7.7,13.1,11.58,9.55,14.85,7.46,16.79,5.57,19,3.6,21A4.9,4.9,0,0,1,.71,22.77q0-2.72,0-5.44C3,14.81,5.57,12.52,8,10.12,11.18,7,14.42,3.91,17.43.61Z" transform="translate(-0.1)"/><path class="cls-31" d="M81.19,99.31H76.25c-.65-1.21.35-1.82,1-2.48,4.26-4.55,8.76-8.88,13.12-13.33,2-2,3.87-4,5.8-6,.84-.88,1.62-2.26,3.26-1.31v4.94c-4.51,4.86-9.33,9.42-14,14.13C84,96.61,82.9,98.25,81.19,99.31Z" transform="translate(-0.1)"/><path class="cls-27" d="M29.79,76.14a11.56,11.56,0,0,1-3.07,4.32Q18.47,88.73,10.22,97c-.67.68-1.61,1.2-1.67,2.33H3.6a3.36,3.36,0,0,1,.48-1.1q8.39-8.33,16.82-16.62c.44-.85,1.32-1.21,2-1.79a26.83,26.83,0,0,1,4.87-3.35C28.4,76.13,29,75.52,29.79,76.14Z" transform="translate(-0.1)"/><path class="cls-32" d="M81.19,99.31c.29-1.39,1.51-2.09,2.38-3,4.67-4.81,9.45-9.52,14.2-14.27a2.35,2.35,0,0,1,1.64-1q0,3,0,5.93c-4,4.2-8,8.32-12.26,12.28Z" transform="translate(-0.1)"/><path class="cls-33" d="M70.33,20.31c-.43-1.3.64-1.87,1.33-2.56,5-5,10-10,14.95-15,.62-.62,1.46-1.12,1.5-2.16h4.45c.65,1-.13,1.54-.64,2.11A99.62,99.62,0,0,1,81.2,13.53a30.67,30.67,0,0,0-4.29,5.06c-1,1-2.45,1.13-3.69,1.67C72.26,20.49,71.3,21.11,70.33,20.31Z" transform="translate(-0.1)"/><path class="cls-34" d="M17.43.61c-.24.6-.32,1.37-.75,1.78-5.13,5-10.32,9.92-15.5,14.85-.1.09-.31.07-.47.09q0-2.72,0-5.44Q6.17,6.07,12,.61Z" transform="translate(-0.1)"/><path class="cls-22" d="M99.4,3c-1.13.07-1.65,1-2.33,1.68-4.71,4.64-9.17,9.54-14.2,13.85a8,8,0,0,0-1.19,1.77,1.44,1.44,0,0,1-.47-1.23,2.75,2.75,0,0,0-.33-1.89,2.33,2.33,0,0,1,.85-2.41C86.55,10.1,91.06,5.13,96,.61,97.69.64,100.08-.35,99.4,3Z" transform="translate(-0.1)"/><path class="cls-35" d="M99.4,76.15c-1.69-.15-2.4,1.26-3.33,2.21C92.68,81.83,89.49,85.51,86,88.83c-3.14,3-6,6.23-9.09,9.19a1.83,1.83,0,0,0-.62,1.29H73.78c-.68-1.1.25-1.68.82-2.29Q85.3,85.59,96.48,74.63c.79-.78,1.54-1.79,2.92-1.43Z" transform="translate(-0.1)"/><path class="cls-35" d="M99.4,73.2a8.3,8.3,0,0,0-2.57,1.87c-4.7,4.73-9.55,9.32-14.09,14.2C80,92.16,77.35,95,74.58,97.83a2.12,2.12,0,0,0-.8,1.47H71.31c0-.95.76-1.42,1.33-2Q85,84.92,97.41,72.54c.57-.57,1-1.31,2-1.33Q99.4,72.21,99.4,73.2Z" transform="translate(-0.1)"/><path class="cls-36" d="M96,.61c0,1-.87,1.53-1.49,2.14q-5.94,6-11.91,11.92c-.75.75-1.62,1.42-1.43,2.67-1.16,1.79-2.72,1.77-4.45,1A13.1,13.1,0,0,1,80.91,13C85,9.6,88.47,5.58,92.08,1.71a3.65,3.65,0,0,0,.48-1.1Z" transform="translate(-0.1)"/><path class="cls-37" d="M12,.61C10.72,3.37,8.15,5,6.12,7.07c-1.68,1.72-3,3.87-5.41,4.83q0-3,0-5.93A55.39,55.39,0,0,1,6.07.61Z" transform="translate(-0.1)"/><path class="cls-38" d="M87.14,99.31A63.86,63.86,0,0,1,99.4,87q0,2.22,0,4.45c-2.18,3-5.18,5.25-7.82,7.83Z" transform="translate(-0.1)"/><path class="cls-39" d="M91.59,99.31c1.92-3.29,5-5.43,7.82-7.83C99.79,99.69,99.79,99.69,91.59,99.31Z" transform="translate(-0.1)"/><path class="cls-40" d="M6.07.61A12.91,12.91,0,0,1,.71,6C.68-.57-.48.58,6.07.61Z" transform="translate(-0.1)"/><path class="cls-41" d="M32.75,57.37c5-5.81,10-11.72,15.11-17.46,2.12-2.38,4.6-4.46,6.38-7.15A1.74,1.74,0,0,1,57,32.17c1.07.6,2.15,1.18,2.38,2.56-1.2,3.22-3.79,5.07-6.64,6.66a6.48,6.48,0,0,0-4.21,3.46,7.47,7.47,0,0,1-2.91,4.84c-2.92,2.6-5.57,5.51-8.37,8.26-.74.73-1.4,1.64-2.6,1.69C33.58,59.23,32.26,59,32.75,57.37Z" transform="translate(-0.1)"/><path class="cls-42" d="M26.34,51.44q0-.25,0-.49c.87-2,2.79-3.14,4.17-4.72,1.22-1.41,2.81-2.5,3.74-4.17,2.16-1.33,4.58-.91,6.92-1a1,1,0,0,1,1,.5c-4.3,3.94-8.43,8-12.34,12.36C28.15,53.77,27.67,52,26.34,51.44Z" transform="translate(-0.1)"/><path class="cls-41" d="M70.33,20.31l3-.51c.61,1.9-.89,3-1.94,3.86-3.41,2.85-6.06,6.43-9.41,9.32a2,2,0,0,1-.86.45,3.1,3.1,0,0,1-2.62-2.25c-2.11-1.47-.36-2.33.57-3.19A60.69,60.69,0,0,1,70.33,20.31Z" transform="translate(-0.1)"/><path class="cls-43" d="M20.9,74.67c2.07-3.66,4.7-7,6.43-10.86,1.71-1.05,1.82-3.34,3.45-4.45a5.86,5.86,0,0,1,3,3,1.1,1.1,0,0,1-.25,1.51q-6.06,5.9-12.09,11.84C20.56,75.67,20.54,75.26,20.9,74.67Z" transform="translate(-0.1)"/><path class="cls-44" d="M33.74,62.32a11.2,11.2,0,0,1-3-3c1.43.11,1.27-1.37,2-2,.16,1.15,1.26,1.37,2,2,1,.52,2.16,1,2,2.46C35.67,61.7,34.41,60.29,33.74,62.32Z" transform="translate(-0.1)"/><path class="cls-45" d="M58.45,31.18l2.47,2c.64.29,1.22.63,1.1,1.48a5.72,5.72,0,0,1-1.61,1.13c-.87.12-1.07-.64-1.47-1.13l-2-2.47A1.51,1.51,0,0,0,58.45,31.18Z" transform="translate(-0.1)"/><path class="cls-46" d="M50.05,75.16l-2-2.47c2.11-2.17,4.35-4.21,6.41-6.43.73-.79,1.64-1.73,3-1v1.48c-1.37,2.57-2.77,5.14-4.11,7.72C52.5,76.1,51.55,76.87,50.05,75.16Z" transform="translate(-0.1)"/><path class="cls-47" d="M42.64,66.75c-.55,0-1.13.09-1.49-.48-.38-.28-.78-.56-.6-1.14,3.33-4,7.18-7.44,10.87-11.07a8.35,8.35,0,0,0,1.87-2.25c1.91-1.31,4.28-2.17,4.87-4.82,2.29-2.08,4.53-4.22,6.63-6.51,1.49-.1,2,1,2.56,2.07.75,1.11.39,1.89-.57,2.73C61,50.36,55.29,55.48,49.56,60.58Z" transform="translate(-0.1)"/><path class="cls-48" d="M57.47,65.28c-2.34.39-3.54,2.24-4.88,3.86a12.47,12.47,0,0,1-4.52,3.55h-.49l-2-2.47Q50.81,64.89,56,59.55c.68-.7,1.3-1.45,1.95-2.18,1,1.56.27,3.3.5,4.93C58.11,63.29,58.2,64.42,57.47,65.28Z" transform="translate(-0.1)"/><path class="cls-47" d="M79.21,27.72q0,.49,0,1c-2.36,4.16-4.54,8.45-7.93,11.93-.68.7-1.07,2.08-2.44.92-1-.64-2.22-1.06-2.12-2.58,3.17-4,7-7.31,10.58-10.83C77.79,27.65,78.4,27.08,79.21,27.72Z" transform="translate(-0.1)"/><path class="cls-49" d="M66.85,39.09l2,2.47a1.5,1.5,0,0,0-1.49,1l-2.46-2a1.08,1.08,0,0,1-.76-1.11,1.39,1.39,0,0,1,1.59-1.17A1.64,1.64,0,0,1,66.85,39.09Z" transform="translate(-0.1)"/><path class="cls-50" d="M34.24,42c.74.55.24,1-.16,1.39q-3.86,3.76-7.74,7.51l-3-2.47c0-1.37,1.31-1.65,2-2.47l6.44-3.46A4.13,4.13,0,0,1,34.24,42Z" transform="translate(-0.1)"/><path class="cls-51" d="M36.7,61.82l-2-2.46c3.18-3.1,6.32-6.23,9.55-9.27,1.69-1.59,3.56-3,3.8-5.56,1,1,.43,2.42.88,3.58a21.5,21.5,0,0,1,.82,2.41,20.08,20.08,0,0,1-5,6.18,39.06,39.06,0,0,0-4.86,4.79c-.53.67-1.12,1.52-2.21.84A1,1,0,0,1,36.7,61.82Z" transform="translate(-0.1)"/><path class="cls-52" d="M37.69,62.32c.38-.14.91-.17,1.11-.44,3.11-4.26,7.79-7,10.77-11.42.85-.34,1.46.38,2.2.52a3.52,3.52,0,0,1,1.75.95c-.09.47,0,1.16-.3,1.38-4.55,3.61-8.08,8.29-12.56,12-1.19.23-1.57-.64-2-1.47Z" transform="translate(-0.1)"/><path class="cls-53" d="M29.79,76.14c-2.55.89-4.52,2.8-6.91,4-.47.14-.62,0-.5-.5q5.74-5.86,11.49-11.71c.74-.75,1.57-1.42,2.36-2.13,1.42-.48,2,.41,2.46,1.5,1.4,1.28,1.25,2.11-.44,3.2C35.39,72.29,32.23,73.69,29.79,76.14Z" transform="translate(-0.1)"/><path class="cls-54" d="M38.68,67.26c-.91-.36-1.32-1.53-2.46-1.5.78-.7,2.08-.75,2.46-2l2,1.47.49,1A2.84,2.84,0,0,0,38.68,67.26Z" transform="translate(-0.1)"/><path class="cls-55" d="M20.9,74.67a1,1,0,0,0,.5,1l-2,2.47C18.84,76.52,20.35,75.8,20.9,74.67Z" transform="translate(-0.1)"/><path class="cls-56" d="M22.38,79.61l.5.5c-.37.89-1.26,1.07-2,1.48C20.63,80.36,21.77,80.18,22.38,79.61Z" transform="translate(-0.1)"/><path class="cls-52" d="M66.85,39.09a1,1,0,0,1-1-.5c-1-.64-2.22-1.06-2.12-2.58.94-1.88,2.59-3.12,4-4.62,3.5-3.77,7.5-7,10.86-11,.75-.88,1.66-1.86,3.1-1.61q0,.74,0,1.48c-.85,2.46-1.29,5.06-2.47,7.41-2,.68-3.18,2.47-4.64,3.84C72,34,69.42,36.57,66.85,39.09Z" transform="translate(-0.1)"/><path class="cls-51" d="M81.68,18.82c-3.94,2.94-7.1,6.67-10.53,10.14-2.39,2.42-4.84,4.77-7.26,7.16-1.17.19-1.64-.55-2-1.49l-1-1.48L72.55,21.29a2.05,2.05,0,0,0,.73-1.48c1-.89,2.38-.81,3.46-1.48a11,11,0,0,0,4.45-1C82.48,17.46,82,18.18,81.68,18.82Z" transform="translate(-0.1)"/><path class="cls-57" d="M58.95,34.64l1.48,1a2.49,2.49,0,0,1,1.88,2.07,8,8,0,0,1-5.23,5.23,10.51,10.51,0,0,1-2.3-1c-.73-.35-1.67-.2-2.25-.91C55,39.26,57.56,37.53,58.95,34.64Z" transform="translate(-0.1)"/><path class="cls-58" d="M52.52,41.05c.83.13,1.78-.31,2.48.5-1.26,3.13-3.83,5.05-6.44,6.93-1-1.22-.28-2.65-.49-4A5.31,5.31,0,0,1,52.52,41.05Z" transform="translate(-0.1)"/><path class="cls-59" d="M61.91,37.61l-1.48-2c0-1,.77-1,1.49-1l2,1.49,2,2.47a1.5,1.5,0,0,0-1.49,1C62.85,39.81,62.57,38.48,61.91,37.61Z" transform="translate(-0.1)"/><path class="cls-52" d="M61.91,37.61l2.47,2,.5,1A16.91,16.91,0,0,1,58.46,47c-.76-.67-.58-1.72-1-2.53-.19-.63-.83-1.16-.48-1.92A10,10,0,0,0,61.91,37.61Z" transform="translate(-0.1)"/><path class="cls-60" d="M58,44a5.11,5.11,0,0,1,.51,3c-.14,3.16-2.51,4.08-4.95,4.94a3.32,3.32,0,0,1-2-.5.93.93,0,0,1-.4-1.45,21.35,21.35,0,0,1,5.68-6.07A.88.88,0,0,1,58,44Z" transform="translate(-0.1)"/><path class="cls-22" d="M58,44c-2.86,1.84-5.59,3.8-6.42,7.41-.86.08-1.29-.71-2-1a2.78,2.78,0,0,1-1-2L55,41.55c.86-.06,1.29.72,2,1Z" transform="translate(-0.1)"/></g></g></svg>