<svg xmlns="http://www.w3.org/2000/svg" viewBox="0 0 100.68 100.19"><defs><style>.cls-1{fill:#fefefe;}.cls-2{fill:#fdbc7a;}.cls-3{fill:#f3b270;}.cls-4{fill:#fab977;}.cls-5{fill:#fbbb79;}.cls-6{fill:#f9b877;}.cls-7{fill:#f9b977;}.cls-8{fill:#fab976;}.cls-9{fill:#efaf6d;}.cls-10{fill:#eeae6b;}.cls-11{fill:#fcbb79;}.cls-12{fill:#faba77;}.cls-13{fill:#f8b775;}.cls-14{fill:#f7b774;}.cls-15{fill:#fbba78;}.cls-16{fill:#f8b875;}.cls-17{fill:#f5b573;}.cls-18{fill:#f4b371;}.cls-19{fill:#f2b16f;}.cls-20{fill:#f2b26f;}.cls-21{fill:#f5b472;}.cls-22{fill:#f3b471;}.cls-23{fill:#f3b371;}.cls-24{fill:#f5b572;}.cls-25{fill:#f6b573;}.cls-26{fill:#f7b775;}.cls-27{fill:#f4b471;}.cls-28{fill:#f2b270;}.cls-29{fill:#f3b370;}</style></defs><title>thumbnail-2</title><g id="Layer_2" data-name="Layer 2"><g id="Layer_1-2" data-name="Layer 1"><path class="cls-1" d="M50.52,100.28c-16.19,0-32.38,0-48.57,0-1.48,0-1.78-.3-1.78-1.78Q.26,50.23.18,1.91C.18.43.48.13,2,.13q48.57.08,97.13,0c1.48,0,1.78.3,1.78,1.78q-.08,48.32,0,96.64c0,1.48-.3,1.78-1.78,1.78C82.9,100.26,66.71,100.28,50.52,100.28Z" transform="translate(-0.18 -0.13)"/><path class="cls-2" d="M50.54,99.79c-15.69,0-31.38,0-47.06,0-2,0-2.82-.33-2.82-2.65Q.79,50.24.66,3.3C.66,1,1.35.62,3.45.63q47.06.1,94.12,0c2.36,0,2.81.73,2.8,2.91q-.1,46.69,0,93.38c0,2.48-.72,3-3,2.94C81.75,99.74,66.14,99.79,50.54,99.79Z" transform="translate(-0.18 -0.13)"/><path class="cls-3" d="M19.55,67.08c3.32-1,2.52-3.65,2.51-6.1-.07-10.4.1-20.8-.09-31.19-.08-4.55,1.74-6.71,6.43-6.75,13.43-.12,26.87,0,40.31.05,2.61,0,5.21-.42,7.84.25,2.28.59,3.46,1.94,3.44,4.15-.1,12.37.36,24.74-.25,37.1-.07,1.42.73,1.44,1.66,1.5a1.85,1.85,0,0,1,1.95,1.56c.13,1.19-.82,1.55-1.83,1.93a39.47,39.47,0,0,1-14.87,2.51c-10.48-.2-21-.21-31.44,0-5,.11-9.75-1.06-14.49-2.42-1.46-.42-2.22-1.08-1.18-2.6.45.42.8,1,1.65.8C20.67,67.48,19.94,67.62,19.55,67.08Z" transform="translate(-0.18 -0.13)"/><path class="cls-2" d="M75.05,28.42c.69.56.49,1.35.49,2.06q0,14,0,28.09c0,.71.2,1.5-.49,2.06a2.6,2.6,0,0,1-1.86.49H60.11c-1.26,0-2.36-.13-2.14-1.86.15-1.18-.71-1.33-1.58-1.38-1.64-.08-3.29,0-4.93-.08a3.3,3.3,0,0,1-2.87-4.23c.39-1.07,1.4-1,2.29-1,4,0,8.06-.16,12.08.06a5.68,5.68,0,0,0,2.92.27c.83-.19,1.76.23,2.51-.42.78-1.89-.72-1.43-1.62-1.59-1.42-.24-3.19.62-4.07-1.32-.22-.86.25-1.78-.26-2.62a1.2,1.2,0,0,1,.15-.68,2.38,2.38,0,0,1,.6-.43c.75-.43,2.37.06,2-1.51-.29-1.29-1.64-.84-2.55-.84a41.59,41.59,0,0,0-7.14.18c-1.07.5-2.83-.39-3.16,1.59a4.14,4.14,0,0,1-.66,1.55c-.18.27-.38.54-.54.83-.57.88.42,2-.5,2.85a2,2,0,0,1-1.76.08c-1.19-.58-1-1.86-1.5-2.82-.13-.2-.26-.41-.38-.62a2.36,2.36,0,0,1-.55-1.35c.06-1.3-.2-2.28-1.79-2.31-1.42,0-2.86-.15-3.25,1.76A1.73,1.73,0,0,1,40,46.73c-2,.32-4.05.12-6,.74-.83.26-1.47-.53-1.69-1.43,0-.58.46-1.11.28-1.65-.69-2.06.39-2.63,2.15-2.69,1.07.06,1.92-.24,2.2-1.42a3.13,3.13,0,0,1,1.83-1.91c6.09-.48,12.19-.09,18.28-.21a4.23,4.23,0,0,0,.74,0c1.06-.22,2.6.66,3.1-.69.42-1.13-1.52-1-1.82-2l-.15-.36c0-.12,0-.25-.07-.38.11-1.06-.25-1.66-1.43-1.66a9.39,9.39,0,0,1-2.85-.34c-5-.13-9.9-.05-14.85-.14-1.22,0-2.6,0-2.62-1.83,0-1.62.38-2.62,2.37-2.58,5.53.11,11.06,0,16.59,0s11.06,0,16.59,0A4.55,4.55,0,0,1,75.05,28.42Z" transform="translate(-0.18 -0.13)"/><path class="cls-4" d="M48.79,50.23h2a8.22,8.22,0,0,1,6.84-.09c0,1.41-1.11,1.12-1.88,1.2a23.47,23.47,0,0,0-4.61.4c2.31-.09,4.91,1.5,6.79-1.23a2,2,0,0,1,2.21,0c.52,1.27,1.55,1.48,2.79,1.53,1.87.07,3.8-.41,5.61.46a.47.47,0,0,1,.08.69c-.83.69-1.65.08-2.48,0a2.9,2.9,0,0,1-2.48,0c-4.27,0-8.55,0-12.82,0-.62,0-2.13-.07-1.69.55.77,1.08-.71,3.35,1.75,3.38,2,0,3.95,0,5.92,0,1.43.06,2.63.38,1.83,2.36-.62,1.54.77,1.06,1.38,1.06,5,0,10,0,15,0-.18,1.22-1.13,1-1.91,1q-21.88,0-43.76,0c-1.61,0-2.43-.44-2.42-2.23C27,49.61,27,39.8,27,30c0-.58,0-1.17.49-1.57l.3.31a7.63,7.63,0,0,1,.43,3.64c0,8.23,0,16.46,0,24.69,0,.69-.61,1.64.49,2.09.35-.38.43-1,1-1.12.81.35,1.42,1,2.26,1.36,1.07.85,2.08.46,3.09-.13,1.51-.5,3.09-.08,4.67-.38-.91-.34-2.24.24-2.48-1.28a2.93,2.93,0,0,0,1.21-2,1.74,1.74,0,0,1,1.88-1.88,20.33,20.33,0,0,1-3.79.12c-.73-.11-1.77.09-1.75-1.19,1.73-1,3.64-.43,5.46-.57,1.3-.1,2.63,0,3.36-1.41a1.87,1.87,0,0,1,1.74-.27c.62-.1.85,2.57,1.8.25A2,2,0,0,1,48.79,50.23Z" transform="translate(-0.18 -0.13)"/><path class="cls-5" d="M38.38,38.83c-.28.69-1.06,1.12-1,2-1.13,0-2.4-.26-2.48,1.49-1.28,0-2.9-.28-1.61,2,.37.65-.24,1.19-.87,1.5l-.22-.18c-.25-.39-.28-.88-.54-1.26a2.12,2.12,0,0,0-.45-.31c-.73-.26-1.73.39-2.21-.66-.6-2.9-.92-5.79.06-8.67.42-.83,1.36-.29,2-.75-.45-.63-1.28,0-1.74-.56a3.79,3.79,0,0,1-.6-2.55,2.33,2.33,0,0,0-1.22-2.39h0c2.72-1.16,5.72-.76,8.44-.69,4.19.11,8.38.12,12.57.17,8,.1,16,0,24,0,.87,0,1.84-.33,2.57.48-11.68,0-23.36,0-35,0-1,0-2.24-.61-2.31,1.51-.05,1.8.46,2,1.93,2,4.34-.07,8.69,0,13,0,.86,0,1.83-.34,2.56.48a7.24,7.24,0,0,1-5,1c-3-.4-6,.51-9-.23a12.43,12.43,0,0,0-4.19,0c-.73.33-2,.13-1.64,1.56.5,1-.6,2-.18,3a2.66,2.66,0,0,0,.44.38C36.58,38.42,37.65,38,38.38,38.83Z" transform="translate(-0.18 -0.13)"/><path class="cls-6" d="M66.57,70c-2.12,0-3.77,0-5.42,0-.83,0-1.59-.19-1.59-1.13s.86-.84,1.5-.84q6.19,0,12.38,0c.53,0,1.35-.2,1.35.63,0,.66-.74.7-1.32.86C71,70.24,68.56,70,66.57,70Z" transform="translate(-0.18 -0.13)"/><path class="cls-7" d="M35,68.07c2.06,0,4.12,0,6.18,0,.68,0,1.41.12,1.42,1,0,.72-.62,1-1.22.94-4.1-.15-8.23.52-12.3-.43-.57-.13-1.35-.18-1.33-.85,0-1,1-.64,1.55-.65C31.21,68,33.11,68.07,35,68.07Z" transform="translate(-0.18 -0.13)"/><path class="cls-8" d="M51,65.59c1.88,0,3.77,0,5.65,0,.46,0,1.09-.17,1.25.46s-.43,1.07-.92,1.27a4.6,4.6,0,0,1-1.68.23q-4.3,0-8.6,0A4.59,4.59,0,0,1,45,67.33c-.5-.2-1.09-.59-.92-1.27s.79-.46,1.25-.46C47.25,65.58,49.13,65.59,51,65.59Z" transform="translate(-0.18 -0.13)"/><path class="cls-9" d="M19.55,67.08a5.72,5.72,0,0,1,.73,0c.84.11,2.05-.42,2.35.68.21.8-.87.67-1.45.85-1.52.49-1.64-.44-1.63-1.54Z" transform="translate(-0.18 -0.13)"/><path class="cls-10" d="M81.3,67.09c.51,0,1.06.07,1.07.72s-.53.74-1,.72-1.05-.26-1.09-.79C80.19,67,80.83,67.12,81.3,67.09Z" transform="translate(-0.18 -0.13)"/><path class="cls-11" d="M48.79,50.23c-.36.58-.94.48-1.49.5a1,1,0,0,1-1.49,0h-2c-1.71,1.2-3.65.49-5.49.68-1.27.13-2.7-.21-3.43,1.31,1.76,1.06,3.69.24,5.52.49,1,.14,2.1-.31,3.09.34-.19.9-.89.62-1.37.64-1.7,0-3.64-.44-2.89,2.58.28,1.15-1.12.79-1.86.91-.77.72-2.07.79-2.48,2q-1.49,2.31-3,0c-.36-.9-1.43-.84-2-1.49-.58.36-.48.94-.5,1.49-1,0-1-.76-1-1.36q.23-5.13,0-10.26a4.13,4.13,0,0,1,.85-2.76,3,3,0,0,1,3.11.5h0c.64,1.17,1.28,1.66,2.7.77,1.18-.74,2.72-.21,4.11-.26.92,0,1.52-.18,1.64-1.31.31-2.92,2.63-2.19,4.37-2.11,1.55.07,2.37,1,1.74,2.7-.26.72.63,1.09.81,1.7-1.74,1.18-3.64.66-5.49.44a12,12,0,0,0-6,.38c3.86,0,7.8,1.66,11.52-.82C48.69,48.06,48,49.38,48.79,50.23Z" transform="translate(-0.18 -0.13)"/><path class="cls-12" d="M34.91,38.33c-1.52-1.16.8-2.31,0-3.47,2.52-1.41,5.26-.36,7.87-.71,2.8-.34,5.64.39,8.44-.27A3.82,3.82,0,0,1,52,34c1.39.41,2.77.06,4.17,0a4.17,4.17,0,0,1,3,.85,1.69,1.69,0,0,0,1.55,1c1.17.1,1.47.87,1.39,1.9-.1,1.25-1.06,1-1.85,1q-11,0-21.91,0c-1.15-.19-2.43.46-3.47-.5.73-.8,1.81-.44,2.95-.85C36.34,36.66,35.66,37.59,34.91,38.33Z" transform="translate(-0.18 -0.13)"/><path class="cls-13" d="M51.76,34.37c-2.76,1-5.63,0-8.43.49a.82.82,0,0,1-.28-.5.9.9,0,0,0-.79-.77c-1.95-.35-4,.59-5.86-.71.65-.76,1.53-.5,2.32-.48,3.88.12,7.76.39,11.64.42,1.62,0,3.22-.61,4.88-.43a22.75,22.75,0,0,1,3.1.06c1.12.16,1.81.73.87,1.93-.1-.1-.2-.21-.31-.3l.31.3q0,.25,0,.49c-2.44-.69-5,.68-7.43-.5.42-.46,1-.55,2-.62A1.94,1.94,0,0,0,51.76,34.37Z" transform="translate(-0.18 -0.13)"/><path class="cls-5" d="M51.27,46.76l.5-1.49c3.18-.49,6.37,0,9.55-.2,1,0,2,.26,3-.46-.77-.95-1.79-.52-2.64-.63-2.15-.28-4.42.61-6.46-.69,3.25-1,6.57-.37,9.86-.37.84,0,1,.89,1,1.69a1.44,1.44,0,0,1-1.18,1.61c-.76.17-1.67-.24-2.28.55-2.15,1.22-4.56.52-6.81,1C54.39,47.11,52.61,48,51.27,46.76Z" transform="translate(-0.18 -0.13)"/><path class="cls-14" d="M55.23,43.29c2.7,0,5.4,0,8.11,0,1,0,2.2-.13,2.17,1.29,0,1.23-1.15,1.23-2.05,1.17-3.9-.25-7.84.61-11.7-.48C51.72,42.52,53.81,43.49,55.23,43.29Z" transform="translate(-0.18 -0.13)"/><path class="cls-15" d="M57.71,50.72c-2.25-1-4.63-.25-6.94-.5,0-1-1.13-2,0-3,.65.53.94,1.47,1.9,1.63,1.67.57,3.27-.53,4.93-.2a4.61,4.61,0,0,1,.73.13c1.56.62,3.25-.11,4.82.42,1,2,2.89.59,4.32,1,.77.2,1.68,0,2,1a1.52,1.52,0,0,1-.87,2v-.5c-.95-1.3-2.36-1.19-3.74-1.28-1.58-.1-3.26.44-4.69-.7H57.71Z" transform="translate(-0.18 -0.13)"/><path class="cls-16" d="M57.71,49.24c-1.82-.47-3.63,1.38-5.45,0l.23-.25a5.55,5.55,0,0,0,2.93-1.58l.3-.15a26.76,26.76,0,0,1,6.94-.49v.49l-.25.26C60.93,48.31,58.77,47.27,57.71,49.24Z" transform="translate(-0.18 -0.13)"/><path class="cls-17" d="M34.91,42.3c-.36-.75-.84-1.54.09-2.2s1.61.4,2.39.71C37.26,42.46,36,42.29,34.91,42.3Z" transform="translate(-0.18 -0.13)"/><path class="cls-16" d="M52.26,49.24c-1.28-.07-1.53-.92-1.49-2l.5-.5c1.48.22,3.07-.5,4.46.5h0a2.78,2.78,0,0,1-2.24.61c-1,0-1.17.59-1.22,1.37Z" transform="translate(-0.18 -0.13)"/><path class="cls-16" d="M63.16,49.24a5.66,5.66,0,0,1-5,0c1.29-1.09,3.44-.26,4.46-2h0C64.18,47.58,62.74,48.64,63.16,49.24Z" transform="translate(-0.18 -0.13)"/><path class="cls-15" d="M63.66,53.2h2.48A1.67,1.67,0,0,1,63.66,53.2Z" transform="translate(-0.18 -0.13)"/><path class="cls-2" d="M29.46,45.27c-.75,4.5.44,9.06-.44,13.56,0,.23.28.54.44.81.38.93-.34.9-.87.95s-1-.16-1.06-.78-.05-1.32-.06-2q0-14.71,0-29.42c1,.21,2.66-.29,1.72,1.92-.35.83.15,2,.26,3a.65.65,0,0,1,0,1,39.54,39.54,0,0,0,0,9.42A1,1,0,0,1,29.46,45.27Z" transform="translate(-0.18 -0.13)"/><path class="cls-18" d="M34.91,52.71c-.77-1.45-.06-2,1.3-2,2.54,0,5.08,0,7.61,0,.53,1.74-.69,1.93-1.85,2C39.62,52.75,37.27,52.71,34.91,52.71Z" transform="translate(-0.18 -0.13)"/><path class="cls-3" d="M60.19,50.72c2.18,0,4.37.08,6.55,0,1.55-.07,2,.6,1.87,2-2.45,0-4.9,0-7.35,0C59.53,52.74,59.54,51.93,60.19,50.72Z" transform="translate(-0.18 -0.13)"/><path class="cls-3" d="M57.71,50.72c.66,1.19.31,1.92-1,2-2,.06-3.92,0-5.88,0-.59,0-1.22-.19-1.27-.88-.06-.87.66-1,1.34-1.06,2.29,0,4.57,0,6.86,0Z" transform="translate(-0.18 -0.13)"/><path class="cls-19" d="M44.36,56.29c-1.43-.6-3.8.86-4-1.08-.1-1,2.54-.49,3.89-.45s3.82-1,3.91.79C48.24,56.86,45.62,55.7,44.36,56.29Z" transform="translate(-0.18 -0.13)"/><path class="cls-18" d="M34.91,59.64c-.73-2.61,1.34-1.71,2.48-2,.72.81,1.69.36,2.55.5.58.1,1.58-.34,1.6.58s-1,.88-1.71.89C38.19,59.66,36.55,59.64,34.91,59.64Z" transform="translate(-0.18 -0.13)"/><path class="cls-20" d="M47.8,58.16c2.68,0,5.36,0,8,0,.78,0,1.71-.21,1.88,1-3.21.52-6.45.18-9.67.19C47,59.35,47.13,58.71,47.8,58.16Z" transform="translate(-0.18 -0.13)"/><path class="cls-3" d="M47.8,58.16c-.45,1.13.34,1,1,1h8.91c-3.37,1.07-6.82.27-10.23.44-.38,0-.88-.2-.81-.72S47.31,58.22,47.8,58.16Z" transform="translate(-0.18 -0.13)"/><path class="cls-21" d="M45.82,50.72H47.3c.27.59.68,1.19-.26,1.6-.38.17-.74.38-1.14.11C45.13,51.91,45.55,51.31,45.82,50.72Z" transform="translate(-0.18 -0.13)"/><path class="cls-22" d="M30,58.16c.73.4,2.83-1,2,1.49C30.87,59.69,30,59.44,30,58.16Z" transform="translate(-0.18 -0.13)"/><path class="cls-23" d="M45,58.83a.78.78,0,0,1-.79.75c-.53.05-1-.13-1-.72s.47-.64.89-.65A.9.9,0,0,1,45,58.83Z" transform="translate(-0.18 -0.13)"/><path class="cls-17" d="M36.4,32.88c2.31.25,4.69-.55,6.94.5-1.68,1.07-3.55.12-5,.51,1.41.28,3.27-.55,5,.48q0,.25,0,.49H34.91C34,33.17,35,32.9,36.4,32.88Z" transform="translate(-0.18 -0.13)"/><path class="cls-17" d="M32.36,40.8c0,.93-.41,1.4-1.17,1.42a1.06,1.06,0,0,1-1.15-1A1.1,1.1,0,0,1,31.2,39.9,1.17,1.17,0,0,1,32.36,40.8Z" transform="translate(-0.18 -0.13)"/><path class="cls-24" d="M29.46,34.37v-1c.22-.1.43-.22.66-.31a1.55,1.55,0,0,1,2,.37.93.93,0,0,1,0,.87,1.55,1.55,0,0,1-2,.37C29.89,34.59,29.68,34.47,29.46,34.37Z" transform="translate(-0.18 -0.13)"/><path class="cls-25" d="M31,38.32c-.64,0-1.33-.17-1.3-1,0-.68.62-.89,1.22-.9s1.37.17,1.34,1C32.2,38.09,31.61,38.27,31,38.32Z" transform="translate(-0.18 -0.13)"/><path class="cls-26" d="M29.46,45.27V43.79c.83-.35,1.65-.94,2.48,0,.73.52.43,1.3.49,2A5.07,5.07,0,0,1,29.46,45.27Z" transform="translate(-0.18 -0.13)"/><path class="cls-27" d="M35.9,31.27c-.53-.14-1.19-.24-1.25-.89s.55-.9,1.14-.93,1.25,0,1.25.74S36.5,31.11,35.9,31.27Z" transform="translate(-0.18 -0.13)"/><path class="cls-23" d="M31.3,30.89c-.46,0-1.11.1-1.11-.6s.5-.82,1-.81,1,.28,1,.85S31.7,30.85,31.3,30.89Z" transform="translate(-0.18 -0.13)"/><path class="cls-27" d="M47.8,47.25c-.14,1.53-1,2.06-2.49,2-2.88-.09-5.76,0-8.64,0-.79,0-1.93.19-2-.9s1-1.49,2.07-1.58c2.81-.25,5.55.4,8.33.5.9,0,1.81,0,2.72,0Z" transform="translate(-0.18 -0.13)"/><path class="cls-3" d="M44.25,45.78c-1.07,0-2.2.09-2.27-1.14-.08-1.44,1.14-1.33,2.12-1.34s2-.1,2.09,1.13C46.27,45.88,45,45.7,44.25,45.78Z" transform="translate(-0.18 -0.13)"/><path class="cls-17" d="M31,46.81c.94.06,1.41.47,1.39,1.23A1.18,1.18,0,0,1,31,49.2c-.7,0-1.41-.15-1.38-1S30.43,47.07,31,46.81Z" transform="translate(-0.18 -0.13)"/><path class="cls-18" d="M31.45,52.64c-.83,0-1.26-.31-1.38-.94s.22-.91.8-.93,1.33.15,1.37,1C32.27,52.34,31.73,52.48,31.45,52.64Z" transform="translate(-0.18 -0.13)"/><path class="cls-28" d="M31.3,54.26c.52.1,1,.34.94.91s-.52,1-1.16.93a.9.9,0,0,1-.95-.9C30.15,54.5,30.67,54.28,31.3,54.26Z" transform="translate(-0.18 -0.13)"/><path class="cls-3" d="M54.15,38.33c-2,0-3.93,0-5.9,0-.47,0-1.1.11-1.18-.55s.46-.83.92-1a5.32,5.32,0,0,1,1.64-.41c3.36,0,6.72,0,10.08,0,.84,0,1.82.06,1.81,1.16s-1.05.79-1.71.8C57.92,38.36,56,38.33,54.15,38.33Z" transform="translate(-0.18 -0.13)"/><path class="cls-3" d="M42.79,38.4c-.79-.3-2.07.44-2.11-.7,0-.93,1.19-1.26,2.08-1.29s2.17.24,2.13,1.15C44.84,38.84,43.44,38,42.79,38.4Z" transform="translate(-0.18 -0.13)"/><path class="cls-3" d="M34.91,38.33c-.07-1.27.41-2.05,1.81-2,.91.05,2.16.26,2.2,1.1.06,1.33-1.29.74-2.06.85a14.19,14.19,0,0,1-1.94,0Z" transform="translate(-0.18 -0.13)"/><path class="cls-19" d="M43.34,34.37h-7.6v-1h7.6Q44.1,33.87,43.34,34.37Z" transform="translate(-0.18 -0.13)"/><path class="cls-19" d="M47.6,34.38c-.56-.14-1.53.3-1.53-.66,0-.76.86-.85,1.53-.82s1.47.07,1.4.93S48.11,34.25,47.6,34.38Z" transform="translate(-0.18 -0.13)"/><path class="cls-28" d="M51.76,34.37A1.33,1.33,0,0,1,52.86,33a2,2,0,0,1,1.85.31c.15.14.3.47.24.62-.37.8-1.13.4-1.72.48a12,12,0,0,1-1.47,0Z" transform="translate(-0.18 -0.13)"/><path class="cls-3" d="M59.2,34.37c-.49-.1-1.22.24-1.29-.64a.66.66,0,0,1,.42-.5c.82-.06.78.6.87,1.14Z" transform="translate(-0.18 -0.13)"/><path class="cls-3" d="M60.83,45.26c-1,0-2,0-2.94,0-.51,0-1-.11-1-.76,0-.48.42-.68.85-.68q2.94,0,5.87,0c.42,0,.85.14.89.64.06.67-.45.79-1,.8C62.63,45.27,61.73,45.26,60.83,45.26Z" transform="translate(-0.18 -0.13)"/><path class="cls-23" d="M53.59,45.16c-.36,0-.64-.1-.71-.48a.6.6,0,0,1,.64-.79.58.58,0,0,1,.61.6A.59.59,0,0,1,53.59,45.16Z" transform="translate(-0.18 -0.13)"/><path class="cls-29" d="M62.66,47.26c.1,1.46-.63,2.06-2,2-.8,0-1.61,0-2.42,0h-.49c-.16-1.37.28-2.14,1.84-2C60.58,47.33,61.62,47.26,62.66,47.26Z" transform="translate(-0.18 -0.13)"/><path class="cls-18" d="M52.26,49.24c-.73-1-1.22-2,.74-2h2.73C55.41,49.38,53.81,49.27,52.26,49.24Z" transform="translate(-0.18 -0.13)"/><path class="cls-23" d="M31.94,43.79c-.08.6.16,1.43-.89,1.35a.67.67,0,0,1-.46-.46C30.51,43.62,31.34,43.87,31.94,43.79Z" transform="translate(-0.18 -0.13)"/></g></g></svg>