<svg xmlns="http://www.w3.org/2000/svg" viewBox="0 0 99.85 99.81"><defs><style>.cls-1{fill:#fe7f9f;}.cls-2{fill:#fefefe;}.cls-3{fill:#f37494;}.cls-4{fill:#fc7f9f;}.cls-5{fill:#f47596;}.cls-6{fill:#f97a9a;}.cls-7{fill:#f47795;}.cls-8{fill:#e96b8b;}.cls-9{fill:#fd7f9e;}.cls-10{fill:#ed708f;}.cls-11{fill:#e96b8a;}.cls-12{fill:#ec6d8d;}.cls-13{fill:#ed6f8f;}.cls-14{fill:#fd7f9f;}.cls-15{fill:#f27593;}.cls-16{fill:#fa7c9b;}.cls-17{fill:#f47695;}.cls-18{fill:#fe80a0;}.cls-19{fill:#fe809f;}.cls-20{fill:#f77999;}.cls-21{fill:#fb7d9d;}.cls-22{fill:#eb6d8d;}.cls-23{fill:#eb6d8c;}.cls-24{fill:#ea6c8c;}.cls-25{fill:#e96a8a;}.cls-26{fill:#f67898;}.cls-27{fill:#f27493;}</style></defs><title>thumbnail-3</title><g id="Layer_2" data-name="Layer 2"><g id="Layer_1-2" data-name="Layer 1"><path class="cls-1" d="M99.32,99.82H.56A4.51,4.51,0,0,1,.32,97.4q0-47.13,0-94.26C.31.32.32.31,3.06.31H96.83c2.74,0,2.74,0,2.74,2.83q0,47,0,94A5.25,5.25,0,0,1,99.32,99.82Z" transform="translate(-0.02 -0.03)"/><path class="cls-2" d="M99.32,99.82q0-48,0-96c0-3.26,0-3.26-3.36-3.26H3.92C.56.56.56.56.56,3.82q0,48,0,96c-.79.17-.48-.44-.48-.74Q.06,50.19,0,1.3C0,.24.24,0,1.3,0Q49.94.09,98.58,0c1.06,0,1.27.2,1.26,1.26q-.05,48.89,0,97.78C99.81,99.38,100.11,100,99.32,99.82Z" transform="translate(-0.02 -0.03)"/><path class="cls-3" d="M18.83,24.76c1.56-1.71,3.51-2,5.76-2q24.85.11,49.71,0c2.25,0,4.2.31,5.76,2a3.73,3.73,0,0,1,.24,2.16q0,18.58,0,37.17c0,.78.32,1.66-.43,2.31-1.08.33-1.73-.39-2.41-1a3.27,3.27,0,0,1-.14-1.79c.07-11.81,0-23.62,0-35.44a4.45,4.45,0,0,0-.51-2.61,2.51,2.51,0,0,0-1.44-1.34A8.9,8.9,0,0,0,73.2,24Q49,24,24.74,24a12.88,12.88,0,0,0-1.71.11,5.6,5.6,0,0,0-1.16.33c-1.32.08-1.36,2.63-3.22,1.68C18.59,25.67,18.46,25.18,18.83,24.76Z" transform="translate(-0.02 -0.03)"/><path class="cls-4" d="M18.83,24.76v1.48c1.21.76,1,2,1,3.11q0,16.28,0,32.56a4.91,4.91,0,0,0,.37,2.88,4,4,0,0,0,.61.63c1.29.78,2.72.56,4.1.56H75.19a18.34,18.34,0,0,1,3.44.13l.45.12c1.49-.62,1-2,1-3q0-19.24,0-38.48c.7.86.49,1.88.49,2.85,0,12.17.09,24.34-.07,36.51,0,2.16.39,3.32,2.55,3.6-.72.92-1.76.73-2.71.73-7.42,0-14.85.06-22.27,0a64.6,64.6,0,0,0-17,0c-7.82.09-15.65-.08-23.47.09-.84.28-1.2,1.08-1.75,1.68l-.46.47c-1.37-1.83-1-3.06,1.21-3.3,1.78-.19,1.8-1,1.79-2.36-.06-12.56,0-25.11,0-37.67A3.65,3.65,0,0,1,18.83,24.76Z" transform="translate(-0.02 -0.03)"/><path class="cls-5" d="M57.84,67.72H83c1.5,1.29,1.21,2.23-.49,3.09a6.05,6.05,0,0,1-3.46.87,1.61,1.61,0,0,0-.81-.54,1.65,1.65,0,0,1,.81.54,26.35,26.35,0,0,1-7.87,1.52c-14.31-.08-28.61-.05-42.92,0a14.75,14.75,0,0,1-6.5-1,.5.5,0,0,1-.14-.57,6.55,6.55,0,0,1,1.82-1.32c.83-.3,1.6.19,2.41.2a1.48,1.48,0,0,1,.91.5,1,1,0,0,1,.12.64c0,.19-.37.34-.19.5s.44-.06.68-.12c14.73-.1,29.43-.13,44.13,0,.22.06.55.22.66.12s-.18-.32-.22-.53a1.13,1.13,0,0,1,.09-.64c1.25-1.26,2.92-1.3,4.51-1.45a4.17,4.17,0,0,0,2.26-.67c-6.35.29-12.68.09-19,.12-1,0-2.25.43-2.59-1.14C57.41,67.52,57.61,67.49,57.84,67.72Z" transform="translate(-0.02 -0.03)"/><path class="cls-6" d="M21.79,71.68q0,.24,0,.49c-2.37.49-4.35-.68-6.42-1.48v-.5a4.42,4.42,0,0,1,.88-.68,2.91,2.91,0,0,1,.71-.29c.95,0,1.67-.88,2.67-.74q9.08,0,18.15,0c1,0,2.18-.33,2.86.85-.17,1.35-1.24,1.12-2.08,1.09-5-.15-10,.47-14.5-.42.4.06,1.53-.24,1.69,1.17l-2.47-.49a1.25,1.25,0,0,1-.84.46,2.26,2.26,0,0,0-.74.12C21.73,71.41,21.75,71.54,21.79,71.68Z" transform="translate(-0.02 -0.03)"/><path class="cls-7" d="M77.1,24.27a7.71,7.71,0,0,1,1,4.24q0,17.88,0,35.76c-.64.22-1.29.45-1.86-.18a1.92,1.92,0,0,1-.3-.79c0-.3,0-.59-.05-.89,0-10.69,0-21.38,0-32.07,0-1,.25-2-.42-2.86a4.61,4.61,0,0,0-3.46-1q-22.57,0-45.15,0a4.47,4.47,0,0,0-3.44,1A5,5,0,0,0,23,30.41C23,41,23,51.56,23,62.13a7.76,7.76,0,0,1-.11,1.37,1.79,1.79,0,0,1-.45.79,1.55,1.55,0,0,1-2.4-.56,4.12,4.12,0,0,1-.25-1.93q0-16.7,0-33.39a4.93,4.93,0,0,1,1.42-4,2.12,2.12,0,0,1,.82-.45,2.32,2.32,0,0,1,.92.15,11.91,11.91,0,0,0,3.66.41H72.22a14.71,14.71,0,0,0,3.19-.24l.87-.22A1.11,1.11,0,0,1,77.1,24.27Z" transform="translate(-0.02 -0.03)"/><path class="cls-3" d="M21.79,24.27a5.29,5.29,0,0,0-1,3.71q0,18.15,0,36.3a.86.86,0,0,1,.23.95c-.33.75-1.09.79-1.72,1-.73-.94-.48-2-.48-3.09q0-18.46,0-36.92c1.06-.58,1.3-2,2.47-2.47A.52.52,0,0,1,21.79,24.27Z" transform="translate(-0.02 -0.03)"/><path class="cls-8" d="M19.32,66.24c.17-.83.78-1,1.49-1l.46-.12A61.64,61.64,0,0,1,28.15,65q22.77,0,45.55,0a20,20,0,0,1,3.44.12l.46.12c.72,0,1.32.17,1.49,1h0a3.23,3.23,0,0,1-1.92.24H21.24a3.23,3.23,0,0,1-1.92-.24Z" transform="translate(-0.02 -0.03)"/><path class="cls-9" d="M20.81,65.25q0-.49,0-1a1.49,1.49,0,0,1,1.49,0l.46-.12C27,63.87,31.28,64,35.54,64Q54.25,64,73,64a18.43,18.43,0,0,1,3.19.12l.46.12a1.49,1.49,0,0,1,1.49,0l-.49,1h0a3.23,3.23,0,0,1-1.92.24h-53a3.18,3.18,0,0,1-1.92-.24Z" transform="translate(-0.02 -0.03)"/><path class="cls-10" d="M21.79,24.27l-.5-.5.5-.49a3.26,3.26,0,0,0,1.92.24H75.18a3.25,3.25,0,0,0,1.92-.24.57.57,0,0,1,0,1h-.5c-.86.68-1.89.48-2.85.48q-24.3,0-48.6,0c-1,0-2,.2-2.85-.48Z" transform="translate(-0.02 -0.03)"/><path class="cls-11" d="M77.1,23.28c-.86.69-1.88.48-2.85.48q-24.8,0-49.59,0c-1,0-2,.21-2.85-.48Z" transform="translate(-0.02 -0.03)"/><path class="cls-12" d="M16.85,70.19h-.49c-1-.66-1-1.32,0-2A3.75,3.75,0,0,1,19,67.73H41c.78-.08,1.51.27,2.28.23a35.64,35.64,0,0,0,12.14,0c.64,0,1.22-.47,1.88-.22.86.66,1.88.46,2.84.47q9.81,0,19.61,0c.65,0,1.31,0,2,0s1.35.37,1.07,1.23-.9.58-1.4.26a4.75,4.75,0,0,0-2.84-.54,29.08,29.08,0,0,1-7.23,1c-2.21.13-4.43,0-6.64,0-2.67,0-5.4-.35-7.84,1.2q-7.37.08-14.75,0c-1-.16-2.1-.16-1.57-1.7-.85-.7-1.87-.49-2.83-.49q-9.44,0-18.89,0C18.27,69.72,17.42,69.66,16.85,70.19Z" transform="translate(-0.02 -0.03)"/><path class="cls-13" d="M19.32,66.24H79.08c-.85.71-1.88.49-2.85.49q-27,0-54.06,0C21.2,66.73,20.18,66.94,19.32,66.24Z" transform="translate(-0.02 -0.03)"/><path class="cls-1" d="M42.52,68.72l-1.48-1c.93-.76,2-.5,3.09-.5,3.7,0,7.41,0,11.11,0a3.72,3.72,0,0,1,2.6.49l-.5,0-1,1A79.71,79.71,0,0,1,42.52,68.72Z" transform="translate(-0.02 -0.03)"/><path class="cls-13" d="M16.36,68.21a1.83,1.83,0,0,0,0,2h-1C15.4,69.37,15.27,68.49,16.36,68.21Z" transform="translate(-0.02 -0.03)"/><path class="cls-14" d="M56.85,70.68C58.72,69,61,69.19,63.31,69.2c5.09,0,10.18,0,15.27,0,.23.37.78,1-.17.93-2.2-.19-4.15.79-6.25,1-.24.23-.5.52-.8.53-4.77.21-9.54.57-14.3-.2A.64.64,0,0,1,56.85,70.68Z" transform="translate(-0.02 -0.03)"/><path class="cls-13" d="M26.24,72.65c-.51-.09-1.45.06-1.32-.54.18-.82,1.18-.3,1.81-.45a2.62,2.62,0,0,1,2-.72c9.41-.06,18.82.19,28.22.44,4.18.11,8.35,0,12.53,0a5.38,5.38,0,0,1,2.65.23c.63.15,1.64-.37,1.81.45.13.6-.82.45-1.32.54A2.7,2.7,0,0,0,71,72.42H27.91A2.7,2.7,0,0,0,26.24,72.65Z" transform="translate(-0.02 -0.03)"/><path class="cls-14" d="M40.55,69.7c.18.81.78,1,1.49,1a.45.45,0,0,1-.29.71c-5-.07-10,.33-15-.21h-1c-1.26-1.39-3-.83-4.57-1.48Z" transform="translate(-0.02 -0.03)"/><path class="cls-11" d="M26.24,72.65a3.7,3.7,0,0,1,2.6-.49H70a3.7,3.7,0,0,1,2.6.49Z" transform="translate(-0.02 -0.03)"/><path class="cls-6" d="M26.73,71.18H42a89.47,89.47,0,0,1,14.82,0H72.17q0,.24,0,.49H26.73Q26.73,71.42,26.73,71.18Z" transform="translate(-0.02 -0.03)"/><path class="cls-12" d="M79.08,71.67c-1-.14-2,.32-3.19-.55a4.48,4.48,0,0,1,3.28-.34c.64.12,0,.58-.09.89Z" transform="translate(-0.02 -0.03)"/><path class="cls-13" d="M22.29,70.68h1c.28,1.49-.9.8-1.48,1-.86-.07-1.73-.11-2.58-.22-.11,0-.17-.34-.26-.53l.87-.25A2.73,2.73,0,0,0,22.29,70.68Z" transform="translate(-0.02 -0.03)"/><path class="cls-13" d="M16.85,70.19a2,2,0,0,1,2-1A2,2,0,0,1,16.85,70.19Z" transform="translate(-0.02 -0.03)"/><path class="cls-12" d="M22.29,70.68a1.81,1.81,0,0,1-2.47,0Z" transform="translate(-0.02 -0.03)"/><path class="cls-15" d="M76.61,26.73q0,18.27,0,36.55a1.48,1.48,0,0,1-1.6-.1,1.74,1.74,0,0,1-.51-.71c-.08-.29-.16-.58-.25-.87-.25-11.36-.06-22.72-.1-34.08a1.69,1.69,0,0,1,.31-.87A1.66,1.66,0,0,1,76.61,26.73Z" transform="translate(-0.02 -0.03)"/><path class="cls-8" d="M76.61,26.73h-2c-.93,1-2.13.73-3.26.73q-23.42,0-46.85,0a2.72,2.72,0,0,1-2.23-.74c.39-1.17,1.39-1,2.26-1H74.34C75.22,25.75,76.22,25.55,76.61,26.73Z" transform="translate(-0.02 -0.03)"/><path class="cls-15" d="M22.29,26.73h2a2.26,2.26,0,0,1,.37.86c-.25,10,0,20-.15,30,0,1.61.7,3.26-.18,4.84a1.46,1.46,0,0,1-.69.63,1.44,1.44,0,0,1-1.33-.3Q22.29,44.75,22.29,26.73Z" transform="translate(-0.02 -0.03)"/><path class="cls-11" d="M22.29,62.78h1a44.81,44.81,0,0,1,6.59-.25H69a44.8,44.8,0,0,1,6.59.25l1,.49q0,.24,0,.49c-.86.7-1.88.49-2.85.49q-24.3,0-48.61,0c-1,0-2,.21-2.85-.49Z" transform="translate(-0.02 -0.03)"/><path class="cls-16" d="M22.29,24.27H76.6q0,.24,0,.49a3.25,3.25,0,0,1-1.92.24H24.21a3.24,3.24,0,0,1-1.92-.24Q22.29,24.51,22.29,24.27Z" transform="translate(-0.02 -0.03)"/><path class="cls-10" d="M22.29,63.76H76.6q0,.24,0,.49h0a3.19,3.19,0,0,1-1.92.24H24.21a3.19,3.19,0,0,1-1.92-.24h0Q22.29,64,22.29,63.76Z" transform="translate(-0.02 -0.03)"/><path class="cls-9" d="M22.29,24.76H76.61c-.86.7-1.88.48-2.85.48q-24.31,0-48.62,0C24.17,25.24,23.15,25.46,22.29,24.76Z" transform="translate(-0.02 -0.03)"/><path class="cls-17" d="M20.81,65.25H77.6c-.86.7-1.88.49-2.85.49q-25.55,0-51.09,0C22.69,65.74,21.66,66,20.81,65.25Z" transform="translate(-0.02 -0.03)"/><path class="cls-16" d="M22.29,64.26H76.61c-.86.7-1.88.49-2.85.49q-24.31,0-48.62,0C24.17,64.75,23.14,65,22.29,64.26Z" transform="translate(-0.02 -0.03)"/><path class="cls-9" d="M56.86,71.18H42v-.5H56.85Z" transform="translate(-0.02 -0.03)"/><path class="cls-4" d="M42.52,68.72H56.36A40.2,40.2,0,0,1,42.52,68.72Z" transform="translate(-0.02 -0.03)"/><path class="cls-18" d="M23.77,62.78q0-16.24,0-32.47c0-1-.26-2.15.48-3.09A3.25,3.25,0,0,1,26.18,27H72.72a3.25,3.25,0,0,1,1.92.24c.74.94.48,2,.48,3.09q0,16,0,32c-.94.74-2.05.48-3.1.48q-21.85,0-43.69,0a23.37,23.37,0,0,0-3.2.08A1.44,1.44,0,0,1,23.77,62.78Z" transform="translate(-0.02 -0.03)"/><path class="cls-10" d="M23.77,62.78h1a3.23,3.23,0,0,1,1.92-.24H73.21a3.19,3.19,0,0,1,1.92.24h.49c-.86.69-1.88.48-2.85.48q-23.32,0-46.65,0c-1,0-2,.21-2.85-.48Z" transform="translate(-0.02 -0.03)"/><path class="cls-19" d="M74.64,27.22H24.25q0-.24,0-.49H74.63Q74.63,27,74.64,27.22Z" transform="translate(-0.02 -0.03)"/><path class="cls-4" d="M75.13,62.78H24.76c.94-.74,2-.48,3.09-.48q23.64,0,47.28,0Z" transform="translate(-0.02 -0.03)"/><path class="cls-19" d="M31.17,59.32c-.24,0-.67,0-.68,0-.52,2-2,2.34-3.62,1.8s-2-2.26-1.93-3.68q.51-11,0-22c-.06-1.21.26-2.44.32-3.67.13-2.93,1.84-4,4.37-2.64.81.45,1.28.88,2,0a2.11,2.11,0,0,1,1.86-.42c.7.06,1.34.28,1.42,1.09s-.5,1.13-1.2,1.29c-.53.12-1.17-.12-1.74.76h8.72c-.89-.45-1.88-.14-2.82-.21s-1.65-.19-1.74-1.3a1.69,1.69,0,0,1,1.41-2,9.38,9.38,0,0,1,2-.16q15.05,0,30.1,0c3.24,0,3.53.3,3.53,3.52q0,13.32,0,26.65c0,3.32-.1,3.49-3.52,3.39-4.26-.12-8.55.52-12.77-.47a2.92,2.92,0,0,0-2.76-2.05c-2.76-.22-5.54-.51-8.25.38-.2.08-.4.14-.61.2a11.9,11.9,0,0,0-1.22,1h-.49c-.86-1.1-1.91-1.32-3.36-1.4A63.32,63.32,0,0,0,31.17,59.32Z" transform="translate(-0.02 -0.03)"/><path class="cls-4" d="M31.17,59.32c2.27-2,5-.64,7.45-.91a15.25,15.25,0,0,0,2.4,0c2-.51,2.69.46,2.49,2.34H43l0-.13-.09.1.13,0a44.49,44.49,0,0,1-10.63.37C31.39,61.12,31.2,60.2,31.17,59.32Z" transform="translate(-0.02 -0.03)"/><path class="cls-4" d="M44,60.81a2.51,2.51,0,0,1,.51-2c1,1.15,2.35,1,3.66,1h5.17c-1.48,0-3,0-4.43,0s-3.17.4-4.4-1c3.92-1.05,7.91-.54,11.84-.32,1.65.09.82,1.73.49,2.77H46.62A5.44,5.44,0,0,1,44,60.81Z" transform="translate(-0.02 -0.03)"/><path class="cls-18" d="M44.51,36.12c-3.61,0-7.23,0-10.84,0-.61,0-1.59.2-1.64-.64-.05-1.11,1-.8,1.69-.81,5.26,0,10.51,0,15.77,0,.15-.22.29-.23.42,0,2.54,0,5.08,0,7.61,0,1.16,0,2.35.05,2.78,1.47a2,2,0,0,1-1.75.71q-6.15.07-12.29,0A2.11,2.11,0,0,1,44.51,36.12Z" transform="translate(-0.02 -0.03)"/><path class="cls-20" d="M44.51,36.12h15.8c1.06.75,1.07,1.8-.21,1.82-5.19.06-10.41.75-15.58-.34,2.2-1,4.51-.31,6.77-.47,1.38-.1,2.78,0,4.17,0H47.12a3.85,3.85,0,0,0-2.6.48C44,37.1,44.3,36.61,44.51,36.12Z" transform="translate(-0.02 -0.03)"/><path class="cls-11" d="M37.07,34.13c-1.06,0-2.12,0-3.18,0-.53,0-1.3.12-1.31-.69,0-.55.62-.72,1.12-.72q3.42,0,6.84,0c.49,0,1.08.18,1.07.76s-.65.62-1.12.63C39.35,34.15,38.21,34.13,37.07,34.13Z" transform="translate(-0.02 -0.03)"/><path class="cls-8" d="M63.24,52.81c-1.22,0-2.44,0-3.66,0a.78.78,0,0,1-.83-.73c0-.51.48-.61.89-.61q3.67,0,7.33,0c.42,0,.87.16.83.67a.84.84,0,0,1-.9.68c-1.22,0-2.44,0-3.66,0Z" transform="translate(-0.02 -0.03)"/><path class="cls-11" d="M51.91,51.45c1.22,0,2.44,0,3.67,0,.42,0,.88.13.87.63a.8.8,0,0,1-.85.71q-3.66,0-7.32,0c-.42,0-.88-.26-.88-.7,0-.66.62-.66,1.1-.67,1.14,0,2.28,0,3.42,0Z" transform="translate(-0.02 -0.03)"/><path class="cls-11" d="M42,52.4c-3.24,1-6.56.24-9.84.49-.5-.91-.46-1.66.76-1.69,2.62-.07,5.25,0,7.88,0C41.57,51.21,42.08,51.55,42,52.4Z" transform="translate(-0.02 -0.03)"/><path class="cls-11" d="M59.5,44c1.14,0,2.28,0,3.42,0,.4,0,.88.07.92.58a.74.74,0,0,1-.79.76q-3.78,0-7.56,0a.94.94,0,0,1-.67-.59c-.11-.52.36-.68.77-.69,1.3,0,2.61,0,3.91,0Z" transform="translate(-0.02 -0.03)"/><path class="cls-4" d="M41.79,56.81c-1.39,0-2.77,0-4.16,0-.7,0-1.32-.36-1.33-1.16a1.16,1.16,0,0,1,1.29-1.19c2.77,0,5.55,0,8.32,0a1.27,1.27,0,0,1,1.42,1.35c0,1-.88,1-1.62,1-1.3,0-2.61,0-3.92,0Z" transform="translate(-0.02 -0.03)"/><path class="cls-21" d="M42,52.4a2.1,2.1,0,0,0-2.06-1c-2,0-4,0-6,0-1,0-1.75.28-1.73,1.47-1.5-1.22-.69-1.85.65-1.91a70.3,70.3,0,0,1,8.3.06,8.15,8.15,0,0,0,3-.06,1.22,1.22,0,0,1,1.64.66c.23.68-.18,1.06-.82,1.25C43.8,54,43.06,52.34,42,52.4Z" transform="translate(-0.02 -0.03)"/><path class="cls-21" d="M32.65,47.47a32.52,32.52,0,0,1,12.36,0l-.19.4a1.86,1.86,0,0,1-1.22.73,67.94,67.94,0,0,1-9.2,0,2.7,2.7,0,0,1-1.51-.72Z" transform="translate(-0.02 -0.03)"/><path class="cls-21" d="M45,47.47c1.44.95,1.12,1.84-.38,1.9-4,.15-8,.05-11.94,0-.59,0-1.2-.23-1.22-.93s.61-.87,1.18-1h0a1.35,1.35,0,0,0,.93.74,55.91,55.91,0,0,0,10.53.07c.43,0,.65-.46.87-.81Z" transform="translate(-0.02 -0.03)"/><path class="cls-11" d="M58.86,48.93c-.72,0-1.21,0-1.69,0s-.88-.1-.89-.61.41-.67.82-.73a5.69,5.69,0,0,1,1.45-.08c1,.11,2.71-.44,2.71.75S59.54,48.65,58.86,48.93Z" transform="translate(-0.02 -0.03)"/><path class="cls-22" d="M34.32,38.1c-.74-.16-2.11.26-2-.69.09-1.29,1.54-.76,2.4-.77.69,0,2-.47,1.93.68S35.15,37.95,34.32,38.1Z" transform="translate(-0.02 -0.03)"/><path class="cls-23" d="M42.16,44c.68.15,1.87-.28,1.86.6,0,1.26-1.33.85-2.13.86s-2,.35-2-.72S41.39,44.2,42.16,44Z" transform="translate(-0.02 -0.03)"/><path class="cls-13" d="M40.56,36.56c.84.19,2.1-.3,2.12.77s-1.24.74-2,.73-2.16.37-2.11-.86C38.63,36.16,40,36.87,40.56,36.56Z" transform="translate(-0.02 -0.03)"/><path class="cls-24" d="M49.92,34.62h-.42a2.82,2.82,0,0,1,4-1.73c.27.17.61.4.41.74a1.17,1.17,0,0,1-.74.47C52.11,34.29,50.92,33.86,49.92,34.62Z" transform="translate(-0.02 -0.03)"/><path class="cls-22" d="M45.43,34.16c-.72-.12-1.92.16-1.83-.73.13-1.19,1.43-.7,2.25-.74s1.87-.24,1.78.69C47.5,34.62,46.18,33.94,45.43,34.16Z" transform="translate(-0.02 -0.03)"/><path class="cls-25" d="M51.81,49c-.66-.18-1.86.31-1.86-.58,0-1.28,1.31-.86,2.1-.88s2-.26,1.85.87C53.78,49.36,52.53,48.8,51.81,49Z" transform="translate(-0.02 -0.03)"/><path class="cls-18" d="M32.05,39.08c3.82-.9,4.27-.56,3.4,3.17C35.27,39.59,33.41,39.66,32.05,39.08Z" transform="translate(-0.02 -0.03)"/><path class="cls-18" d="M26.73,36.12a.92.92,0,0,1,0-1.48,1.6,1.6,0,0,1,2.46,0,.92.92,0,0,1,0,1.48A1.6,1.6,0,0,1,26.73,36.12Z" transform="translate(-0.02 -0.03)"/><path class="cls-18" d="M29.2,42c.84,1.53-.36,1.45-1.23,1.45s-2.07.08-1.23-1.45A1.6,1.6,0,0,1,29.2,42Z" transform="translate(-0.02 -0.03)"/><path class="cls-18" d="M28,58.36c-.66-.15-1.58.12-1.48-.87.07-.73.86-.62,1.4-.6s1.49-.17,1.4.82C29.29,58.46,28.47,58.19,28,58.36Z" transform="translate(-0.02 -0.03)"/><path class="cls-18" d="M29.2,49.45C30,51,28.84,50.9,28,50.9s-2.07.08-1.23-1.45A1.6,1.6,0,0,1,29.2,49.45Z" transform="translate(-0.02 -0.03)"/><path class="cls-26" d="M29.2,42H26.73c-.66-1.4,0-1.94,1.33-1.94.91,0,1.95,0,1.13,1.44a1.65,1.65,0,0,0-.81-.49,1.65,1.65,0,0,1,.81.49Z" transform="translate(-0.02 -0.03)"/><path class="cls-26" d="M29.2,49.45H26.73c-.66-1.4,0-1.94,1.33-1.94.91,0,1.95,0,1.13,1.44a1.65,1.65,0,0,0-.81-.49,1.65,1.65,0,0,1,.81.49Z" transform="translate(-0.02 -0.03)"/><path class="cls-26" d="M29.2,34.63H26.73c-.66-1.4,0-1.94,1.33-1.94.91,0,1.95,0,1.13,1.44a1.65,1.65,0,0,0-.81-.49,1.65,1.65,0,0,1,.81.49Z" transform="translate(-0.02 -0.03)"/><path class="cls-26" d="M26.73,36.12H29.2v.5a1.65,1.65,0,0,1-.81.49,1.65,1.65,0,0,0,.81-.49C30,38,29,38.06,28.07,38.06,26.76,38.05,26.08,37.52,26.73,36.12Z" transform="translate(-0.02 -0.03)"/><path class="cls-12" d="M34.18,29.84c0,.51-.34.7-.76.75-.57.06-1.22.07-1.29-.68,0-.46.46-.62.86-.65S34,29.26,34.18,29.84Z" transform="translate(-0.02 -0.03)"/><path class="cls-22" d="M56.89,32.76c.53,0,1,.15,1.06.76s-.5.58-.9.57-.88-.09-.93-.6S56.44,32.79,56.89,32.76Z" transform="translate(-0.02 -0.03)"/><path class="cls-12" d="M34.18,40.71c0,.51-.34.7-.76.75-.57.06-1.22.06-1.29-.68,0-.46.46-.62.86-.64S34,40.14,34.18,40.71Z" transform="translate(-0.02 -0.03)"/><path class="cls-22" d="M28.88,29.9a.85.85,0,0,1-.89.64c-.5,0-1-.2-.89-.82s.57-.47,1-.47S28.83,29.4,28.88,29.9Z" transform="translate(-0.02 -0.03)"/><path class="cls-22" d="M28,45.36c-.42,0-.82-.11-.93-.56s.26-.69.67-.73,1,0,1.08.59C28.88,45.09,28.48,45.31,28,45.36Z" transform="translate(-0.02 -0.03)"/><path class="cls-24" d="M51.7,45.41c-.42-.06-.85-.23-.8-.69s.61-.67,1.11-.61.77.28.64.79S52.11,45.4,51.7,45.41Z" transform="translate(-0.02 -0.03)"/><path class="cls-22" d="M27.88,52.77c-.43-.05-.83-.28-.8-.71,0-.63.61-.62,1.09-.58s.81.2.65.74S28.3,52.76,27.88,52.77Z" transform="translate(-0.02 -0.03)"/><path class="cls-22" d="M28,56.33c-.4,0-.89,0-.94-.53S27.53,55,28,55a.76.76,0,0,1,.83.69C28.88,56.21,28.44,56.3,28,56.33Z" transform="translate(-0.02 -0.03)"/><path class="cls-18" d="M29.52,39a2.12,2.12,0,0,1-2.58.13A2,2,0,0,1,29.52,39Z" transform="translate(-0.02 -0.03)"/><path class="cls-18" d="M29.46,46.32a1.77,1.77,0,0,1-2.38.31C27.75,45.77,28.45,46,29.46,46.32Z" transform="translate(-0.02 -0.03)"/><path class="cls-27" d="M29.2,59.82a1.18,1.18,0,0,1-1.84.78c-.84-.43-.62-1.14-.13-1.77C27.71,59.51,28.72,59.14,29.2,59.82Z" transform="translate(-0.02 -0.03)"/><path class="cls-18" d="M26.93,31.75a2.05,2.05,0,0,1,2.56-.15A2.06,2.06,0,0,1,26.93,31.75Z" transform="translate(-0.02 -0.03)"/><path class="cls-18" d="M26.94,54a1.82,1.82,0,0,1,2.42-.19C28.65,54.57,28,54.45,26.94,54Z" transform="translate(-0.02 -0.03)"/><path class="cls-22" d="M29.2,59.82c-.81,0-1.69.11-2-1C28,58.85,28.93,58.72,29.2,59.82Z" transform="translate(-0.02 -0.03)"/><path class="cls-8" d="M35.81,58.74c1.09.5,3.2-.73,3.16,1.1,0,1.64-2.12.86-3.3.91s-3.08.55-3-1C32.73,57.9,34.76,59.29,35.81,58.74Z" transform="translate(-0.02 -0.03)"/><path class="cls-22" d="M41,59.82c.65-1.37,1.31-1.37,2,0A1.42,1.42,0,0,1,41,59.82Z" transform="translate(-0.02 -0.03)"/><path class="cls-3" d="M41,59.82h2v1h0C42.22,60.78,41.33,60.91,41,59.82Z" transform="translate(-0.02 -0.03)"/><path class="cls-11" d="M44.52,58.84c3.45,0,6.91,0,10.36,0,.62,0,1.53-.21,1.62.68s-.68,1.24-1.5,1.25q-4.32,0-8.63,0c-1.25,0-1.66-.87-1.84-1.93Z" transform="translate(-0.02 -0.03)"/><path class="cls-11" d="M44.52,37.59a2,2,0,0,1,1.87-1c4.28,0,8.55,0,12.83.06.19,0,.38.2.56.91H44.52Z" transform="translate(-0.02 -0.03)"/><path class="cls-11" d="M42.2,56.33c-1.3,0-2.61,0-3.91,0a1,1,0,0,1-.73-.48c-.17-.5.28-.79.66-.8Q42,55,45.78,55a.72.72,0,0,1,.77.76c-.05.52-.54.56-.93.56-1.14,0-2.28,0-3.42,0Z" transform="translate(-0.02 -0.03)"/><path class="cls-23" d="M45,52.9c-.53-.16-1.25-.17-1.12-1,.06-.36.47-.46.79-.37.92.25.5.85.32,1.37Z" transform="translate(-0.02 -0.03)"/><path class="cls-11" d="M45,47.48c.54,1.14,0,1.46-1.06,1.46H33.72c-1,0-1.6-.33-1.06-1.47A35.07,35.07,0,0,0,45,47.48Z" transform="translate(-0.02 -0.03)"/><path class="cls-22" d="M29.19,41.54c-.51-.07-1.13.17-1.49-.38-.17-.26.09-.43.33-.48.69-.14,1,.27,1.16.86Z" transform="translate(-0.02 -0.03)"/><path class="cls-22" d="M29.19,48.95c-.51-.07-1.13.17-1.49-.38-.17-.26.09-.43.33-.48.69-.14,1,.27,1.16.86Z" transform="translate(-0.02 -0.03)"/><path class="cls-22" d="M29.19,34.13c-.51-.07-1.13.17-1.49-.38-.17-.26.09-.43.33-.48.69-.14,1,.27,1.16.86Z" transform="translate(-0.02 -0.03)"/><path class="cls-22" d="M29.19,36.61c-.16.59-.47,1-1.16.86-.24,0-.5-.22-.33-.48.36-.55,1-.31,1.49-.38Z" transform="translate(-0.02 -0.03)"/></g></g></svg>