<svg xmlns="http://www.w3.org/2000/svg" viewBox="0 0 99.84 99.84"><defs><style>.cls-1{fill:#fefefe;}.cls-2{fill:#c189ef;}.cls-3{fill:#b780e5;}.cls-4{fill:#b880e5;}.cls-5{fill:#be86ec;}.cls-6{fill:#bb83e8;}.cls-7{fill:#c088ed;}.cls-8{fill:#bf88ed;}.cls-9{fill:#b57ee3;}.cls-10{fill:#b37be1;}.cls-11{fill:#b57de3;}.cls-12{fill:#b27ae0;}.cls-13{fill:#bf87ed;}.cls-14{fill:#c089ee;}.cls-15{fill:#bc85eb;}.cls-16{fill:#bb83e9;}.cls-17{fill:#c088ee;}.cls-18{fill:#bb84e9;}.cls-19{fill:#bd85eb;}.cls-20{fill:#b981e7;}.cls-21{fill:#bc85ea;}.cls-22{fill:#ba82e8;}.cls-23{fill:#ba83e8;}.cls-24{fill:#b880e6;}.cls-25{fill:#ba82e7;}.cls-26{fill:#bc84eb;}.cls-27{fill:#b77fe5;}.cls-28{fill:#b77fe4;}.cls-29{fill:#b981e6;}.cls-30{fill:#b67fe4;}</style></defs><title>thumbnail-5</title><g id="Layer_2" data-name="Layer 2"><g id="Layer_1-2" data-name="Layer 1"><path class="cls-1" d="M99.82,49.92c0,16.05,0,32.1,0,48.15,0,1.47-.3,1.77-1.77,1.77q-48.15-.08-96.3,0C.31,99.85,0,99.55,0,98.07Q.1,49.92,0,1.77C0,.3.31,0,1.79,0q48.15.08,96.3,0c1.47,0,1.78.3,1.77,1.77C99.79,17.82,99.82,33.87,99.82,49.92Z" transform="translate(-0.02)"/><path class="cls-2" d="M99.33,50.05c0,15.55,0,31.1,0,46.65,0,2-.41,2.66-2.55,2.65q-46.89-.11-93.79,0C1.18,99.35.5,99,.5,96.93q.1-47,0-94C.51,1.12.88.49,2.81.49q47.14.09,94.28,0c2,0,2.28.68,2.27,2.42C99.3,18.63,99.33,34.34,99.33,50.05Z" transform="translate(-0.02)"/><path class="cls-3" d="M21.79,25.23c.84-1,2-1,3.15-1q24.28,0,48.56,0c2.19,0,4.27.45,5.09,2.94a10.46,10.46,0,0,1,.49,3.62q0,16.87,0,33.74a5.53,5.53,0,0,1-.41,2.65,1.65,1.65,0,0,1-1.84.91c-.62-.08-1.32-.5-1.19-1C76,65.7,75.5,66,74.41,66c-6.23-.15-12.47.36-18.69-.31a1.61,1.61,0,0,1-.7-.56c-.23-2,1.34-1.5,2.28-1.52,4.6-.1,9.2,0,13.81,0,3.24,0,3.3-.07,3.31-3.34q0-13.56,0-27.12c0-3.83-.48-4.19-4.38-3.35-9.78.29-19.57.07-29.35.13-4.52,0-9,0-13.57,0-1.61,0-2.68.38-2.67,2.33,0,9.79,0,19.57,0,29.36a2.92,2.92,0,0,0,.26,1.19c.42.77,1.16.81,1.91.82,1,0,2,0,2.94,0s2.49-.19,2.5.89c0,1.49-1.58,1.29-2.71,1.3a44.77,44.77,0,0,0-5.38,0c-1.26-.33-1.76.22-1.68,1.46-1.88,1.16-2.67.83-2.73-1.28-.07-2.62,0-5.25,0-7.88,0-9.44.06-18.88,0-28.32A4.6,4.6,0,0,1,21.79,25.23Z" transform="translate(-0.02)"/><path class="cls-4" d="M70.19,29.18c3.92-1.42,4.94-.76,4.94,3.19,0,9.68,0,19.37,0,29,0,2.11-.59,2.92-2.79,2.87-5.17-.13-10.34-.07-15.51,0-.52,0-1.92-.78-7.54,1.71-1.89,1.11,2.25,1.13,6.41.95-.46-1.4-1.15-1.82-3.76-2-3-.25-6-.09-2.65,1.09,12.21-.58,18.38-1.14,24.52-.45a3.13,3.13,0,0,0,2-.78c.38-.23.65-1.23,1.32-.33a1,1,0,0,1-.32,1.66c-.4.25-1,.39-.86,1,.1.44.57.55,1,.57.62,0,1.24-.14,1.4-.76a8.71,8.71,0,0,0,.2-2.19q0-18.76,0-37.52a5.47,5.47,0,0,1,1,3.7q0,16.79,0,33.57a6,6,0,0,1-.17,1.95c-.53,1.49-.09,2.21,1.48,2.27,1.12,0,2,.6,2,1.71s-1,1.42-2,1.8a44.84,44.84,0,0,1-16.64,2.46c-11.93-.16-23.86.07-35.79-.12A39.37,39.37,0,0,1,17,72.14c-1.13-.37-1.26-1.19-1.14-2.15a1.42,1.42,0,0,1,1.77-1.29c1.65.16,1.77-.36,1.75-2.06-.17-12.83-.1-25.67-.09-38.51a2.79,2.79,0,0,1,2.46-2.91c-1.81,1.61-2,3.66-2,6,.1,11.17,0,22.34.05,33.51A8.45,8.45,0,0,0,20,66.9a1,1,0,0,0,1.38.69c.81-.24.66-.8.4-1.37.34-.56,1-.59,1.48-1,2.77-.91,5.67.36,8.46-.48-2.41-1.12-5.11.25-7.47-1,1-1,2.33-.68,3.53-.68q21.11,0,42.21,0c3.71,0,3.93-.22,3.93-3.9,0-7.9-.09-15.8,0-23.7C74,32.41,74.09,29.69,70.19,29.18Z" transform="translate(-0.02)"/><path class="cls-5" d="M70.19,29.18c4.44,0,4.45,0,4.45,4.35q0,13.45,0,26.89c0,3.32,0,3.33-3.25,3.33H24.26a4.8,4.8,0,0,1-.5-2.62c0-9.7.08-19.41,0-29.11,0-2.39.88-2.89,3.05-2.87C41.24,29.21,55.71,29.18,70.19,29.18Z" transform="translate(-0.02)"/><path class="cls-6" d="M23.27,65.23c0,1-.76,1-1.48,1C21.17,64.23,22.29,64.83,23.27,65.23Z" transform="translate(-0.02)"/><path class="cls-3" d="M50.08,67.68c-2.21,0-4.42,0-6.62,0-.7,0-1.64-.17-1.65-1.09,0-.73.84-1,1.44-1.15,3-.88,6.05-1.72,9.16-1.11a21.59,21.59,0,0,1,4.72,2.09c.29.14.56.39.34.78a1.06,1.06,0,0,1-1,.46c-2.11,0-4.22,0-6.34,0Z" transform="translate(-0.02)"/><path class="cls-3" d="M57.84,69.18a3,3,0,0,1,2.21-.91c4.84-.09,9.69-.06,14.53-.05.7,0,1.41.25,1.31,1.1a1,1,0,0,1-1.33.8c-3.91-.82-7.79.43-11.7.12-1.31-.1-2.69-1.08-4-.07C58.48,69.86,58,69.68,57.84,69.18Z" transform="translate(-0.02)"/><path class="cls-3" d="M39.07,69.68c-5.54,1.07-11,.18-16.55-.51a44.45,44.45,0,0,1,16.55-.47A.69.69,0,0,1,39.07,69.68Z" transform="translate(-0.02)"/><path class="cls-7" d="M41.55,69.68a3.25,3.25,0,0,1,3.09-1.52c3.12.11,6.25,0,9.37,0,1.11,0,2.22,0,2.35,1.48h0c-2.25.69-4.5-.13-6.76,0a31.41,31.41,0,0,0-6.57.52C42.36,70.54,41.72,70.8,41.55,69.68Z" transform="translate(-0.02)"/><path class="cls-8" d="M40.55,71.16c-.17,1.22-1.12,1-1.9,1-3.76,0-7.53,0-11.29,0-.64,0-1.81.43-1.8-.6s1.2-.85,2-.85c4.17,0,8.34,0,12.52,0A.59.59,0,0,1,40.55,71.16Z" transform="translate(-0.02)"/><path class="cls-7" d="M57.84,71.16c5.17-.92,10.28-.52,15.4-.26l0,1.25c-4.5,0-9,0-13.49,0-.78,0-1.72.23-1.89-1Z" transform="translate(-0.02)"/><path class="cls-3" d="M18.82,69.18c.7.21,1.78-.64,2,0a6.74,6.74,0,0,0,1.59,2.67c.24.24-.34.71-.76.61-1.61-.4-3.21-.87-4.81-1.32A24.57,24.57,0,0,0,18.82,69.18Z" transform="translate(-0.02)"/><path class="cls-3" d="M81.55,71.16,77,72.42c-.35.1-.82,0-.72-.33a15.24,15.24,0,0,1,1.13-2.79c.43-.82,1.1-.36,1.68-.11A11.65,11.65,0,0,0,81.55,71.16Z" transform="translate(-0.02)"/><path class="cls-9" d="M40.55,71.16l-.49-.49-1-1v-1c1-.21,1.69.55,2.47,1,.36.58.94.47,1.48.49C42.7,71.76,41.42,70.94,40.55,71.16Z" transform="translate(-0.02)"/><path class="cls-10" d="M81.55,71.16c-1.42.09-2.61-.11-2.47-2C80.13,69.56,82.57,68.19,81.55,71.16Z" transform="translate(-0.02)"/><path class="cls-11" d="M57.84,69.18a.9.9,0,0,1,1,1,1.7,1.7,0,0,0-1,1h0c-.56-.43-3.11,1.13-1.48-1.48h0Z" transform="translate(-0.02)"/><path class="cls-12" d="M18.82,69.18q.16,2.13-2,2C15.75,68.74,17.68,69.36,18.82,69.18Z" transform="translate(-0.02)"/><path class="cls-3" d="M38.13,64.35H41C39.93,65.54,39.24,65.1,38.13,64.35Z" transform="translate(-0.02)"/><path class="cls-2" d="M32.16,63.26H29.69a13.51,13.51,0,0,1-.16-4.89c0-.46.27-.94-.31-1.24-1.26-.28-1.84.06-1.31,1.42a1.83,1.83,0,0,1,.11,1,1.68,1.68,0,0,1-.31.58c-1.36.72,0,2.29-1,3.14-.68-.07-1.46.23-2-.49a2,2,0,0,1-.24-1.18q0-15.12,0-30.23a2,2,0,0,1,.24-1.18c.64-.76,1.52-.48,2.31-.48,14.71,0,29.42,0,44.13-.05,2.23,0,3,.6,3,2.92q-.17,13.93,0,27.85c0,2.37-.85,2.95-3,2.89-4.76-.13-9.53,0-14.3,0A2.13,2.13,0,0,1,56.26,62,1.83,1.83,0,0,0,55,60.1c-1.86-.24-3.73,0-5.59-.14-1.09-.06-2.14-.19-2.41-1.54-.56-3.73-.56-3.71,3.32-3.75,5.57-.05,11.15.12,16.71-.09.45-.26,1.26-.15,1.09-1.05a2.5,2.5,0,0,0-1.48-.87,9.71,9.71,0,0,0-1.45-.12c-3.45-.13-4.07-1-3.21-4.6a2.21,2.21,0,0,1,.92-.51c1.38-.45,1.64-1.07.31-1.94l-.63-.24a37.46,37.46,0,0,0-6.7,0,4.72,4.72,0,0,1-.67.18,26.83,26.83,0,0,1-3.11.15c-.74,0-1.52.07-1.36,1.16.1.19.2.37.32.55,1.17,1.57-.68,1.44-1.16,2.08s-.3,1.25-.5,1.87c-.31,1-1.17,1.25-2,1.52a2.35,2.35,0,0,1-1.93-.26A1.75,1.75,0,0,1,45,51.48c.3-1.41-.32-1.88-1.71-1.91-2.95-.06-5.9.22-8.85-.3-1.38-.24-2.19.53-1.81,2.08a4.72,4.72,0,0,1,0,1.09c-.48,1.53-.09,2.34,1.68,2.3a6.8,6.8,0,0,1,3.62.4c.46.45.2.88,0,1.31a4,4,0,0,0-.87,2.24c-.84,1.91-2.72.93-4,1.47a1.57,1.57,0,0,0-.71,1.28C32.23,62,32.54,62.67,32.16,63.26Z" transform="translate(-0.02)"/><path class="cls-13" d="M32.16,63.26a3.32,3.32,0,0,1-.49-2c3.43.63,6.86-.1,10.27.05,5,.22,9.95.09,14.91.44v1.48Z" transform="translate(-0.02)"/><path class="cls-13" d="M24.75,30.17q0,16.3,0,32.6c-.69-.56-.49-1.34-.49-2.06q0-14.24,0-28.48C24.27,31.51,24.06,30.73,24.75,30.17Z" transform="translate(-0.02)"/><path class="cls-13" d="M29.69,56.34c.28.28.84.71.79.81-1,1.95.17,4.17-.79,6.1h-3c.34-1.15-1.72-3,1-3.46.39.38.05,1.2.84,1.37.19-.76-.6-.9-.84-1.37v-1A13,13,0,0,0,29.69,56.34Z" transform="translate(-0.02)"/><path class="cls-14" d="M49.44,48.93c-.34-.94,2.49.24,1-1.48.3-.48,1.05-.41,1.28-1-.7,0-.84.72-1.28,1-1.07-1.78-.5-2.54,1.5-2.48,1.14,0,2.29,0,3.44,0-.83,1.66,0,2,1.46,1.81a17.4,17.4,0,0,1,4.68.26,1.23,1.23,0,0,1,.77.9c-.16,3.78-.16,3.78,3.39,3.95.57,0,1.15,0,1.55.5-.86.88-2,.65-3,.67a56.89,56.89,0,0,0-7.12.27c-2.11-.65-4.41.27-6.48-.77-.51-.65-.08-1.05.38-1.45,2.06-.73,4.19-.29,6.29-.4,1-.06,2.11.28,3.1-.38-.25-.93-1-.68-1.59-.69-2.28-.06-4.56,0-6.84,0C51.07,49.58,50.13,49.7,49.44,48.93Z" transform="translate(-0.02)"/><path class="cls-15" d="M58.33,37.57c1,.07,2.4-.26,2.35,1.36s-1.25,1.62-2.51,1.62c-8,0-16.05,0-24.08,0-.88,0-1.9.19-2.3-.93a1.5,1.5,0,0,1,.86-2c.12-.11.25-.3.38-.3,4,.15,8-1.16,11.94.56a2.49,2.49,0,0,0,2.13,1.45,103.5,103.5,0,0,0,10.78-.21c-3.15-.41-6.31-.19-9.46-.32-1.06,0-2.37.38-3-1,.16-.2.29-.47.54-.49C50.09,36.83,54.24,36.31,58.33,37.57Z" transform="translate(-0.02)"/><path class="cls-8" d="M56.85,52.88c3.42-1,6.92-.3,10.37-.49a1.49,1.49,0,0,1,1.48,1,2.41,2.41,0,0,1-.49,1.48,5.49,5.49,0,0,1-3.11.49H46.81c.18,1.13,1.74,1.81.66,3a.59.59,0,0,1-.75-.07c-.74-1.27-2-1.16-3.2-1.26-2-.16-4.07.64-5.92-.65l.49-1c.8-.87,2-.53,2.94-.93a12.41,12.41,0,0,1,2.56-.23c.28-.06.8,0,.74-.33-.12-.55-.78-.33-1.18-.53s-.71-.32-.68-.8c1-1.05,2-.88,3-.14h2l.08.32c-.31.64-.5,1.33.51,1.42a51,51,0,0,0,7,0c.86,0,.87-.83,1.19-1.35A.41.41,0,0,1,56.85,52.88Z" transform="translate(-0.02)"/><path class="cls-16" d="M56.85,61.77a37.9,37.9,0,0,1-12.53.1,29,29,0,0,0-5,.22c-1.95.08-3.9.08-5.85.2-.88.05-1.3-.56-1.85-1l.49-1.48c2.26-.12,4.51-.84,6.79-.12.3,1.19-.68,1.07-1.3,1.18-.93.17-1.9,0-2.84.18,1.56-.05,3.26.52,4.5-1a5.56,5.56,0,0,1,5.75,0c.52,1,1.44.94,2.36,1,2,0,4.05,0,6.08,0-1.87-.12-3.75,0-5.62-.1-.9-.05-2,.25-2.44-1.05.21-.27.48-.55.8-.51,3.2.42,6.45-.17,9.64.4A1.74,1.74,0,0,1,56.85,61.77Z" transform="translate(-0.02)"/><path class="cls-17" d="M58.33,37.57c-3.51,0-7,0-10.54,0-.78,0-1.66-.27-2.3.48a.3.3,0,0,1-.49,0c-4.09-.79-8.24,0-12.35-.5l-.49-1c1.71-1.23,3.67-.51,5.51-.67,1-.09,2,0,3,0s1.7,0,2.55,0h1.22a6.25,6.25,0,0,1,.8,0c.8,0,1.59,0,2.39,0s1.61,0,2.42,0h3.24c.93,0,1.86,0,2.79,0a4,4,0,0,1,1.18.18,1.4,1.4,0,0,1,.64.46Z" transform="translate(-0.02)"/><path class="cls-17" d="M55.87,59.8c-2.69,0-5.39,0-8.08,0-.78,0-1.66-.27-2.29.48a.3.3,0,0,1-.49,0,17,17,0,0,0-5.93,0h0c-2.24-1-4.61-.25-6.91-.49.72-.82,1.69-.4,2.55-.49s1.73.23,1.9-1a57.3,57.3,0,0,1,10.37,0h.49c.24,1.37,1.33.88,2.15,1C51.69,59.56,53.85,58.75,55.87,59.8Z" transform="translate(-0.02)"/><path class="cls-18" d="M49.44,48.93c3.37,0,6.73,0,10.1,0,1,0,2.21-.1,2.11,1.35-.08,1.23-1.21,1.11-2.11,1.11H50.93c-.85.6-1.49.35-2-.49C49,50.23,48.72,49.45,49.44,48.93Z" transform="translate(-0.02)"/><path class="cls-18" d="M32.16,51.4c-.54-1.89.3-3.24,2.09-2.87,3.25.68,6.5.25,9.75.38,1.84.08,2.39.81,1.5,2.48A27.64,27.64,0,0,1,32.16,51.4Z" transform="translate(-0.02)"/><path class="cls-14" d="M32.16,51.4H45.49v1c-1,.16-2.1-.4-3,.49a1.53,1.53,0,0,1-1.25.36,53.38,53.38,0,0,0-6.36-.18c-1,0-2,.11-2.77-.68Z" transform="translate(-0.02)"/><path class="cls-16" d="M47,58.32a23.09,23.09,0,0,1-10.37,0c.09-.78-.33-1.81,1-2,2.44,0,4.88,0,7.31,0C46.32,56.3,47.07,56.83,47,58.32Z" transform="translate(-0.02)"/><path class="cls-19" d="M32.16,52.39c3.12.28,6.3-.58,9.38.49a1.43,1.43,0,0,1-.6.45c-2.15.52-4.36,0-7,.45,2.55.83,4.85-.11,6.89.8l.25.27c-.87.89-2,.33-3,.49-1.31,0-2.62,0-3.93,0C31.64,55.31,31.36,54.88,32.16,52.39Z" transform="translate(-0.02)"/><path class="cls-6" d="M41,36.59H32.16c-.9-1.69-.32-2.47,1.52-2.47H41a.47.47,0,0,1-.06.66c-2,1-4.2.2-6.16.58,2,.35,4.14-.43,6.16.56A.47.47,0,0,1,41,36.59Z" transform="translate(-0.02)"/><path class="cls-20" d="M62.29,47.95l-.49-.49c0-.24.14-.56,0-.71-1.1-1.29-4.52-.83-5.45.71-.86,0-1.89.22-2.31-.83-.49-1.22,1-1,1.33-1.64h0a26.72,26.72,0,0,1,7.9,0h0q1.95,1.48,0,3Z" transform="translate(-0.02)"/><path class="cls-21" d="M41.67,45a8.65,8.65,0,0,1,1.76.11c.73.2,1.44.64,1.36,1.51a1.57,1.57,0,0,1-1.34,1.28,7.8,7.8,0,0,1-1.72.08c-1.23,0-2.67.22-2.63-1.68S40.77,45.26,41.67,45Z" transform="translate(-0.02)"/><path class="cls-15" d="M56.36,36.59h-3A2.06,2.06,0,0,1,53,36a2.32,2.32,0,0,1,0-1.36,2.13,2.13,0,0,1,.4-.56c1.48.22,3.06-.5,4.45.49l-.21.25C56.88,35.2,56.64,35.91,56.36,36.59Z" transform="translate(-0.02)"/><path class="cls-22" d="M28.18,45.11c.74.25,1.73.36,1.78,1.31s-1,1.27-1.72,1.34a1.27,1.27,0,0,1-1.48-1.24C26.72,45.56,27.45,45.34,28.18,45.11Z" transform="translate(-0.02)"/><path class="cls-23" d="M33.35,44c-.78,0-1.61.08-1.63-1A1.28,1.28,0,0,1,33,41.56a1.51,1.51,0,0,1,1.71,1.37C34.95,44.07,34,43.9,33.35,44Z" transform="translate(-0.02)"/><path class="cls-23" d="M28.56,36.6c-.9,0-1.75.09-1.77-1a1.28,1.28,0,0,1,1.3-1.43,1.52,1.52,0,0,1,1.73,1.36C30,36.69,29,36.42,28.56,36.6Z" transform="translate(-0.02)"/><path class="cls-22" d="M29.69,56.34c.09,1.42-.11,2.61-2,2.47-.77-.36-1.23-1-.88-1.78C27.44,55.75,28.73,56.57,29.69,56.34Z" transform="translate(-0.02)"/><path class="cls-5" d="M28.29,33.13c-.95,0-2,0-1.94-1.29a1.71,1.71,0,0,1,1.81-1.63,1.72,1.72,0,0,1,1.91,1.52C30.22,33,29.21,33.1,28.29,33.13Z" transform="translate(-0.02)"/><path class="cls-19" d="M41,36.59q0-.25,0-.49c-.08-.49-.39-1,0-1.48v-.49h3l.21.27c0,.11,0,.23,0,.34a2.89,2.89,0,0,1-.73,1.86Z" transform="translate(-0.02)"/><path class="cls-20" d="M29.63,39.16c-.14,1-1,.86-1.69.86s-1.23-.13-1.08-.94.93-1,1.71-1S29.66,38.39,29.63,39.16Z" transform="translate(-0.02)"/><path class="cls-20" d="M28.24,52.89c.68,0,1.37,0,1.38,1s-.66,1-1.35,1-1.35-.25-1.41-1.05C26.79,52.78,27.62,52.95,28.24,52.89Z" transform="translate(-0.02)"/><path class="cls-24" d="M28.27,51.37a.89.89,0,0,1-1-1.05c0-.74.4-1.28,1.16-1.29a1.07,1.07,0,0,1,1.18,1.23C29.55,51,29,51.34,28.27,51.37Z" transform="translate(-0.02)"/><path class="cls-24" d="M28.39,41.56c.72.1,1.25.47,1.21,1.24a1.06,1.06,0,0,1-1.3,1.09c-.77-.1-1.05-.67-1-1.4S27.74,41.54,28.39,41.56Z" transform="translate(-0.02)"/><path class="cls-19" d="M49.94,36.59H47.47a2.07,2.07,0,0,1-.39-.56A2.44,2.44,0,0,1,47,35a1.57,1.57,0,0,1,.48-.89h2.47A3.37,3.37,0,0,1,49.94,36.59Z" transform="translate(-0.02)"/><path class="cls-22" d="M49.94,36.59a2,2,0,0,1,0-2.47H53.4v.49c-1.13.49-1.19,1,0,1.48q0,.25,0,.49Z" transform="translate(-0.02)"/><path class="cls-22" d="M34.13,30.66l.49.49a1.09,1.09,0,0,1,0,1.48l-1.48.49c-.75-.32-1.56-.66-1.14-1.71A1.36,1.36,0,0,1,34.13,30.66Z" transform="translate(-0.02)"/><path class="cls-14" d="M63.27,45h-7.9A13.21,13.21,0,0,1,63.27,45Z" transform="translate(-0.02)"/><path class="cls-14" d="M63.27,47.95a2.59,2.59,0,0,0,0-3,1.37,1.37,0,0,1,1.45,1.6A1.35,1.35,0,0,1,63.27,47.95Z" transform="translate(-0.02)"/><path class="cls-5" d="M34.13,30.66c-2.27.42-2.41.78-1,2.47-1.4.11-1.73-.74-1.39-1.82C32.15,30,33,29.78,34.13,30.66Z" transform="translate(-0.02)"/><path class="cls-14" d="M49,50.91a3.33,3.33,0,0,0,2,.49l-.49,1-.29.28a2.29,2.29,0,0,1-2.67-.28h0C47.81,51.74,49,52,49,50.91Z" transform="translate(-0.02)"/><path class="cls-22" d="M47.47,34.12v1A3.51,3.51,0,0,1,44,34.61v-.49Z" transform="translate(-0.02)"/><path class="cls-5" d="M34.63,32.64V31.15C35.4,31.65,36.18,32.14,34.63,32.64Z" transform="translate(-0.02)"/><path class="cls-14" d="M68.21,54.86c0-.54-.09-1.13.49-1.48C69.59,54.22,68.74,54.49,68.21,54.86Z" transform="translate(-0.02)"/><path class="cls-15" d="M57.84,36.59h-.49a1.67,1.67,0,0,1,.49-2h0A1.2,1.2,0,0,1,57.84,36.59Z" transform="translate(-0.02)"/><path class="cls-25" d="M27.72,59.8c1.15,0,2.28.18,1.73,1.79a1,1,0,0,1-1.44.5c-1.15-.6-.7-1.46-.29-2.29Z" transform="translate(-0.02)"/><path class="cls-3" d="M56.36,47.45c-.85-.82-1.35-1.72.36-1.91a30.65,30.65,0,0,1,4.92,0c.53,0,1.29.21,1.35.86s-.74.75-1.19,1Z" transform="translate(-0.02)"/><path class="cls-20" d="M50.43,47.45A5.67,5.67,0,0,1,50.59,46c.25-.68.92-.54,1.47-.49s.81.47.78,1c0,.77-.59.87-1.19.89H50.43Z" transform="translate(-0.02)"/><path class="cls-14" d="M56.85,52.88h-.49a2.09,2.09,0,0,1-.71.48,9,9,0,0,1-5.06-.23.53.53,0,0,1-.16-.74h0C52.56,52.67,54.78,51.8,56.85,52.88Z" transform="translate(-0.02)"/><path class="cls-3" d="M45,38.07h.49c3.94,0,7.88,0,11.82,0,.93,0,2.31-.28,2.32,1.1S58.27,40,57.5,40c-3.61.07-7.22,0-10.84,0C45.16,40.09,44.46,39.66,45,38.07Z" transform="translate(-0.02)"/><path class="cls-4" d="M34.46,40.06c-.86-.12-2.14.22-2-1.13.08-1,1.23-.85,2-.85s2.08-.06,2,1.2S35.15,39.86,34.46,40.06Z" transform="translate(-0.02)"/><path class="cls-3" d="M40.47,40.06c-.6-.15-1.64.28-1.61-.61s1-1.4,2-1.38c.79,0,1.62.21,1.55,1.14C42.29,40.49,41.15,39.86,40.47,40.06Z" transform="translate(-0.02)"/><path class="cls-3" d="M62.64,54.85H59.7c-.71,0-1.34-.15-1.28-1.07.05-.76.61-.88,1.22-.88h6.88c.51,0,1,.1,1.08.73a1,1,0,0,1-1,1.16c-1.31.07-2.62,0-3.93,0Z" transform="translate(-0.02)"/><path class="cls-20" d="M55.87,52.88h.49c.56,1,.46,1.87-.83,1.92-2.55.1-5.1,0-7.65,0a1.56,1.56,0,0,1-1.46-1.14c-.45-1.08,1-.67,1-1.3h3q0,.25,0,.49c-.22.35-.64.42-1.21.87C51.63,53.42,53.89,54.47,55.87,52.88Z" transform="translate(-0.02)"/><path class="cls-26" d="M41,52.88h2.47a1.66,1.66,0,0,1,.49,2H41A2.08,2.08,0,0,1,41,52.88Z" transform="translate(-0.02)"/><path class="cls-20" d="M44,54.86a3.32,3.32,0,0,1-.49-2c.72.12,1.75-.34,1.91.87S44.77,54.85,44,54.86Z" transform="translate(-0.02)"/><path class="cls-27" d="M45,60.29h.49c2.87,0,5.73,0,8.6,0,.6,0,1.52-.24,1.59.67s-.86.78-1.46.79c-2.46,0-4.91,0-7.37,0C45.82,61.78,45.09,61.45,45,60.29Z" transform="translate(-0.02)"/><path class="cls-27" d="M39.07,60.29c-.75,1.35-4.9,2.14-5.89,1.1a.82.82,0,0,1-.23-.62c.12-.52.6-.46,1-.47,1.71,0,3.42,0,5.14,0Z" transform="translate(-0.02)"/><path class="cls-28" d="M44,34.61c1.17,0,2.38-.19,3.46.49v1c-.74.59-1.74-.12-2.47.49h-.49a1.32,1.32,0,0,1-.49-2Z" transform="translate(-0.02)"/><path class="cls-29" d="M57.84,34.61a3.31,3.31,0,0,1-.49,2h-1C55.33,34.79,56.34,34.51,57.84,34.61Z" transform="translate(-0.02)"/><path class="cls-22" d="M45,36.59c.69-.82,1.64-.37,2.47-.49v.49Z" transform="translate(-0.02)"/><path class="cls-22" d="M44,34.61a3.31,3.31,0,0,0,.49,2h-1C43.59,35.9,43.29,35.13,44,34.61Z" transform="translate(-0.02)"/><path class="cls-27" d="M58.73,49.4c.68.24,2-.4,1.85.85s-1.47.57-2.27.63c-.64,0-1.81.32-1.74-.67C56.66,48.88,58,49.67,58.73,49.4Z" transform="translate(-0.02)"/><path class="cls-27" d="M49.58,49.92c.32-.24.44-.42.56-.42,1,0,2.11-.43,3,.33a.52.52,0,0,1-.16.83A2.88,2.88,0,0,1,49.58,49.92Z" transform="translate(-0.02)"/><path class="cls-27" d="M38.69,50.9c-1.55,0-3.1,0-4.65,0-.55,0-1.27,0-1.21-.8,0-.64.63-.65,1.12-.66q4.9,0,9.79,0c.38,0,.9-.06,1,.48s-.41.91-.89.92c-1.71.05-3.42,0-5.14,0Z" transform="translate(-0.02)"/><path class="cls-27" d="M41.79,58.23c-1.05,0-2.11,0-3.16,0a.78.78,0,0,1-.77-.79c0-.53.49-.57.9-.58,2,0,4.06,0,6.09,0,.5,0,1,.12,1,.78s-.62.66-1.11.67c-1,0-1.95,0-2.92,0Z" transform="translate(-0.02)"/><path class="cls-3" d="M41,52.88a1.61,1.61,0,0,1,0,2H34.22c-.76,0-1.57,0-1.48-1.1.08-.92.84-.85,1.48-.86C36.49,52.88,38.77,52.89,41,52.88Z" transform="translate(-0.02)"/><path class="cls-27" d="M41,34.61c.13.49.79,1,0,1.48-2.3,0-4.61,0-6.91,0-.45,0-1.13.15-1.19-.53s.61-.91,1.19-.92C36.44,34.61,38.75,34.62,41,34.61Z" transform="translate(-0.02)"/><path class="cls-3" d="M41.48,45.46c.87.12,2.12-.31,2.27.92s-1,1.05-1.81,1.06-2.05.22-2.21-1C39.56,45.07,40.82,45.65,41.48,45.46Z" transform="translate(-0.02)"/><path class="cls-30" d="M53.4,36.09c-.91-.25-2.57.61-2.6-.66s1.65-.67,2.6-.82Z" transform="translate(-0.02)"/><path class="cls-24" d="M28.11,30.8c.69.15,1,.49,1,1s-.43.78-1,.77-.9-.29-.83-.88A1.11,1.11,0,0,1,28.11,30.8Z" transform="translate(-0.02)"/><path class="cls-3" d="M55.87,52.88c0,.47.07,1.18-.46,1.27a35.1,35.1,0,0,1-7.26.12c-.15,0-.45-.38-.41-.49.1-.27.32-.66.55-.71a18.36,18.36,0,0,1,2.16-.2Z" transform="translate(-0.02)"/></g></g></svg>